<svg width="69" height="36" fill="none" xmlns="http://www.w3.org/2000/svg"><g clip-path="url(#clip0_401_5156)"><path fill-rule="evenodd" clip-rule="evenodd" d="M54.724.726l-5.441 18.681L44.422.726H29.476v5.44C27.336 3.157 24.724 0 16.416 0 8.11 0 1.218 4.897 1.218 12.479h10.194c.072-2.576 1.995-4.027 4.317-4.027 2.285 0 4.171.58 4.171 2.43s-1.378 3.012-2.212 3.012h-5.442v6.602h3.737c2.43.145 3.156 1.995 3.156 3.3 0 1.307-.436 3.302-3.882 3.302s-5.006-2.866-4.897-5.732H.057c0 6.167 3.59 14.075 15.2 14.075 11.607 0 12.95-5.332 14.22-5.622v4.498H39.67V16.215l4.715 18.102h9.178l5.006-18.102v18.102h10.339V.726H54.724zM29.476 19.444c-.471-1.088-2.213-2.322-3.083-2.648 1.378-.363 2.612-1.67 3.083-3.12v5.768z" fill="#4B4B4B"/></g><defs><clipPath id="clip0_401_5156"><path fill="#fff" transform="translate(.057)" d="M0 0h68.887v35.441H0z"/></clipPath></defs></svg>