<svg width="102" height="30" fill="none" xmlns="http://www.w3.org/2000/svg"><path fill-rule="evenodd" clip-rule="evenodd" d="M.53.353H30v29.5H.53V.354z" fill="#000"/><path fill-rule="evenodd" clip-rule="evenodd" d="M4.95 25.433V4.773l20.63 10.345L4.95 25.433z" fill="#fff"/><path fill-rule="evenodd" clip-rule="evenodd" d="M36.78 12.878L41.081.382h1.975l4.42 12.496H45.65l-1.267-3.595h-4.597l-1.18 3.595H36.78zm3.359-5.069h3.684l-1.68-5.246L40.14 7.81zm7.604 5.07V.381h2.004l6.012 10.08V.381h1.562v12.496h-1.827l-6.13-9.902v9.903h-1.621zm10.374 0L62.42.381h1.975l4.42 12.496h-1.827L65.72 9.283h-4.598l-1.178 3.595h-1.827zm3.39-5.07h3.654l-1.68-5.246-1.974 5.246zm8.28 5.07V.381h1.71v11.023h5.835v1.473h-7.544zm7.427-6.72c0-2.653 2.063-5.895 5.895-5.895 2.594 0 5.747 1.592 5.865 6.425 0 3.537-2.063 6.543-6.248 6.543-3.684 0-5.512-2.888-5.512-7.073zm1.563.825c.147 1.592.796 4.598 3.948 4.833 2.329.295 4.687-1.59 4.568-5.776-.147-2.299-1.709-4.303-4.184-4.303-1.975 0-4.332 1.474-4.332 5.246zm10.875-1.061c.383-2.947 2.092-5.658 6.16-5.777 2.475 0 4.715 1.71 4.832 4.009h-1.562c-.147-1.061-1.59-2.534-3.418-2.534-2.093 0-4.42 1.473-4.42 4.95 0 2.418.736 5.13 4.184 5.13 1.297 0 4.009-.65 3.89-4.068h-3.772V6.159h5.217v6.72h-1.179l-.265-1.474c-3.89 3.713-10.198 1.473-9.667-5.482zm-52.608 11.2h4.539c2.093 0 4.568 1.856 4.568 5.806 0 2.77-.972 6.395-4.568 6.395h-4.539V17.122zm1.474 10.668h3.42c3.33 0 3.565-9.225-.473-9.225h-2.947v9.225zm9.372 1.532v-12.2h7.869v1.326h-6.395v3.92h6.13v1.473h-6.13v4.067h6.66v1.414H47.89zm12.614 0l-4.068-12.2h1.593l3.36 10.256 3.152-10.257h1.622l-4.067 12.201h-1.592zm7.191 0v-12.2h1.473v12.2h-1.473zm3.448-5.864c.118-2.771 1.239-6.219 5.159-6.454 1.355 0 3.83.648 4.538 4.096h-1.562c-1.15-4.215-6.425-3.3-6.513 2.063 0 7.014 6.513 5.923 6.72 1.739h1.62c-.264 2.24-2.004 4.775-4.686 4.775-3.566.146-5.276-2.83-5.276-6.22zm11.878 5.864v-12.2h7.839v1.326h-6.396v3.92h6.13v1.473h-6.13v4.067h6.661v1.414h-8.104zm9.343-3.92h1.502c0 3.803 5.511 3.684 5.865 1.062.383-3.95-7.367-.943-6.985-6.307.118-1.71 1.445-3.154 4.038-3.154s4.303 1.327 4.185 3.684h-1.444c.206-2.888-5.188-3.27-5.335-.295.383 2.77 6.778.944 7.28 5.306.265 5.157-9.225 5.688-9.106-.296z" fill="#000"/></svg>