<svg width="122" height="23" fill="none" xmlns="http://www.w3.org/2000/svg"><path fill-rule="evenodd" clip-rule="evenodd" d="M5.163 13.11c2.2.087 3.667.028 3.667 2.574 0 2.955-1.085 2.78-3.667 2.839V13.11zm0-8.633c1.82 0 3.315-.088 3.315 2.077 0 2.605-1.056 2.459-3.315 2.605V4.477zm2.112 17.997c4.196 0 6.719-1.904 6.719-6.35 0-2.722-.5-3.893-2.846-5.239v-.058c1.79-.966 2.494-2.692 2.494-4.623 0-4.42-3.051-5.678-6.953-5.678H0v21.948h7.275z" fill="#474747"/><path d="M28.298 22.474v-4.39h-7.012v-4.74h6.455v-4.39h-6.455V4.916h6.66V.526H16.123v21.948h12.175zm16.028-14.28V6.35c0-4.477-2.64-6.35-7.041-6.35-4.724 0-6.924 2.224-6.924 6.994v9.013c0 4.477 1.848 6.993 6.601 6.993 5.28 0 7.452-2.633 7.452-6.408V13.9H39.25v1.99c0 1.346-.146 3.16-1.907 3.16-1.35 0-1.848-.731-1.848-1.96l.03-10.857c0-1.434.38-2.311 1.994-2.282.968 0 1.644.965 1.644 2.838v1.405h5.163zm7.41 14.28V17.06l1.144-2.225 2.845 7.638h5.457l-4.987-12.262L60.889.527h-5.281l-3.814 8.779h-.058V.526h-5.164v21.948h5.164zm15.976 0v-9.13h3.579v9.13h5.163V.527h-5.163v8.427h-3.58V.527H62.55v21.947h5.163z" fill="#474747"/><path fill-rule="evenodd" clip-rule="evenodd" d="M87.414 15.918c0 1.258-.117 3.133-1.79 3.133-1.672 0-1.877-1.875-1.877-3.133V6.906c0-1.346.205-2.956 1.848-2.956 1.702 0 1.819 1.61 1.819 2.956v9.012zm5.164-9.363C92.578 2.34 90.142 0 85.624 0c-4.517 0-7.041 2.341-7.041 6.555v8.925c0 4.945 1.82 7.52 7.041 7.52 5.222 0 6.954-2.575 6.954-7.52V6.555z" fill="#474747"/><path d="M100.075 22.474v-9.277h6.425v-4.39h-6.425v-3.89h6.983V.526H94.912v21.948h5.163zm14.443 0v-9.277h6.425v-4.39h-6.425v-3.89h6.983V.526h-12.146v21.948h5.163z" fill="#474747"/></svg>