<svg width="66" height="66" fill="none" xmlns="http://www.w3.org/2000/svg"><g clip-path="url(#clip0_401_4080)" fill-rule="evenodd" clip-rule="evenodd"><path d="M22.012 39.196h22.045L33.034 61.447l-11.022-22.25zM16.5 28.242h33.034L60.42 6.504H5.546L16.5 28.242z" fill="#4B4B4B"/><path d="M10.201 32.829c0-1.37-.65-2.396-2.19-2.396-1.78 0-2.397 1.472-2.465 2.84v.927c.068 1.505.685 2.875 2.465 2.806 1.369.069 2.19-.89 2.19-2.328l-1.369-.136c-.068.821-.205 1.3-.787 1.3-.787 0-.822-.787-.787-2.122-.069-1.164.068-2.123.718-2.054.582-.069.72.719.72 1.164H10.2zm-.068 4.039h1.3l.309-1.232h1.472l.205 1.232h1.609l-1.3-6.333h-2.123l-1.472 6.333zm2.328-4.964l.513 2.568h-1.027l.514-2.568zm2.943 4.964h1.54v-2.704h.514l.822 2.704h1.609l-1.061-3.012c.65-.274 1.095-.822 1.095-1.472 0-1.233-.958-1.815-2.122-1.815h-2.397v6.3zm1.575-5.066h.274c.582-.069 1.095 0 1.095.65 0 .514-.376.719-1.027.719h-.308v-1.37h-.034zm6.641 1.917c-.068 1.609.514 3.355 2.397 3.286 1.951.069 2.499-1.677 2.465-3.286.068-1.609-.514-3.286-2.465-3.286-1.883 0-2.465 1.677-2.396 3.286zm1.678 0c0-1.232 0-2.123.719-2.054.787-.069.787.822.719 2.054.068 1.3.068 2.122-.72 2.122-.718 0-.718-.821-.718-2.122zm10.646 3.149h1.301l.308-1.232h1.472l.274 1.232h1.609l-1.37-6.333h-2.053l-1.54 6.333zm2.362-4.964l.445 2.568h-1.027l.582-2.568zm3.561 4.964h1.677l1.677-6.299h-1.3l-1.028 4.45h-.068l-.753-4.45h-1.643l1.438 6.3zm2.635 0h1.3l.309-1.232h1.403l.308 1.232h1.61l-1.404-6.333h-2.122l-1.404 6.333zm2.396-4.964l.445 2.568h-1.027l.582-2.568zm-26.564 4.964h3.286v-1.095h-1.746v-5.204h-1.54v6.3zm15.542-3.149h-2.191v1.095h.787c0 .377-.205 1.027-.787 1.027-.72 0-.788-.787-.822-2.122.069-1.164.137-2.123.822-2.054.582-.069.65.445.65 1.164h1.609c0-1.404-.719-2.396-2.328-2.396-1.951 0-2.465 1.814-2.499 3.491.069 1.815.72 3.15 2.396 3.081.514.069 1.027-.205 1.404-.582l.308.445h.582l.069-.958v-2.191zm17.8 2.019h-2.328l2.328-4.416v-.753h-4.005v1.233h2.054l-2.054 3.8v1.266h4.005v-1.13zm4.553 0h-2.362l2.362-4.416v-.753h-4.04v1.233h2.054l-2.053 3.8v1.266h4.039v-1.13zm.583 1.13h1.608V30.57h-1.608v6.3z" fill="#000"/></g><defs><clipPath id="clip0_401_4080"><path fill="#fff" d="M0 0h66v66H0z"/></clipPath></defs></svg>