<svg width="94" height="19" fill="none" xmlns="http://www.w3.org/2000/svg"><path d="M.482.84h4.732c1.83 0 3.337.368 4.524 1.105a6.739 6.739 0 012.678 3.029c.59 1.291.884 2.769.884 4.433 0 1.672-.294 3.155-.884 4.446a6.816 6.816 0 01-2.678 3.042C8.551 17.63 7.043 18 5.214 18H.482V.84zm3.224 2.899V15.1h1.222c1.118 0 2.037-.243 2.756-.728.728-.494 1.27-1.17 1.625-2.028.364-.858.546-1.829.546-2.912.01-1.092-.164-2.067-.52-2.925-.355-.858-.9-1.534-1.638-2.028-.728-.494-1.65-.741-2.769-.741H3.706zM24.165 18v-1.86c-.078.191-.277.46-.598.807-.32.347-.754.663-1.3.949-.537.277-1.17.416-1.898.416-1.023 0-1.928-.243-2.717-.728a5.21 5.21 0 01-1.859-2.015c-.442-.858-.663-1.825-.663-2.9 0-1.074.221-2.036.663-2.885a5.187 5.187 0 011.859-2.028c.789-.494 1.694-.741 2.717-.741.71 0 1.326.121 1.846.364.529.234.953.511 1.274.832.33.312.542.593.637.845v-1.73h3.276V18h-3.237zm-5.798-5.33c0 .598.134 1.127.403 1.586a2.887 2.887 0 002.509 1.43c.546 0 1.031-.126 1.456-.377.425-.26.758-.615 1.001-1.066.251-.46.377-.984.377-1.573 0-.59-.126-1.11-.377-1.56a2.735 2.735 0 00-1.001-1.08c-.425-.26-.91-.39-1.456-.39-.52 0-1.001.13-1.443.39a2.86 2.86 0 00-1.066 1.067c-.269.45-.403.975-.403 1.573zm18.558-5.655a5.27 5.27 0 012.132.455 3.852 3.852 0 011.703 1.417c.45.65.676 1.5.676 2.548V18H38.12v-5.993c0-.875-.208-1.525-.624-1.95-.408-.425-.945-.637-1.612-.637-.434 0-.85.121-1.248.364a2.77 2.77 0 00-.962.988c-.243.416-.364.893-.364 1.43V18h-3.302V7.327h3.302V9.03c.095-.295.312-.598.65-.91.338-.312.767-.572 1.287-.78a4.316 4.316 0 011.677-.325zM52.4 18v-1.86c-.079.191-.278.46-.599.807-.32.347-.754.663-1.3.949-.537.277-1.17.416-1.898.416-1.022 0-1.928-.243-2.717-.728a5.211 5.211 0 01-1.859-2.015c-.442-.858-.663-1.825-.663-2.9 0-1.074.221-2.036.663-2.885a5.188 5.188 0 011.86-2.028c.788-.494 1.694-.741 2.716-.741.711 0 1.326.121 1.846.364.529.234.954.511 1.274.832.33.312.542.593.637.845v-1.73h3.276V18H52.4zm-5.8-5.33c0 .598.135 1.127.403 1.586a2.888 2.888 0 002.51 1.43c.545 0 1.03-.126 1.455-.377.425-.26.759-.615 1.001-1.066.252-.46.377-.984.377-1.573 0-.59-.125-1.11-.377-1.56a2.734 2.734 0 00-1-1.08c-.425-.26-.91-.39-1.457-.39-.52 0-1 .13-1.443.39a2.86 2.86 0 00-1.066 1.067c-.268.45-.403.975-.403 1.573zm18.65-5.655a5.27 5.27 0 012.132.455 3.851 3.851 0 011.703 1.417c.45.65.676 1.5.676 2.548V18h-3.315v-5.993c0-.875-.2-1.525-.598-1.95-.39-.425-.914-.637-1.573-.637a2.45 2.45 0 00-1.274.364 2.837 2.837 0 00-.988.988 2.71 2.71 0 00-.377 1.43V18h-3.315V.112h3.315V9.03c.087-.295.299-.598.637-.91.338-.312.767-.572 1.287-.78a4.35 4.35 0 011.69-.325zm9.57 6.383c.026.485.156.918.39 1.3.234.381.572.68 1.014.897.45.216.988.325 1.612.325.563 0 1.057-.07 1.482-.208a4.261 4.261 0 001.092-.507c.303-.208.528-.408.676-.598l1.365 2.028a3.96 3.96 0 01-.975.845c-.399.251-.91.45-1.534.598-.616.156-1.387.234-2.314.234-1.17 0-2.197-.23-3.081-.69a4.97 4.97 0 01-2.067-1.988c-.494-.867-.741-1.898-.741-3.094 0-1.04.22-1.976.663-2.808a4.883 4.883 0 011.924-1.99c.849-.485 1.867-.727 3.055-.727 1.118 0 2.084.216 2.899.65a4.475 4.475 0 011.91 1.872c.451.823.677 1.829.677 3.016 0 .07-.005.212-.013.429 0 .208-.009.347-.026.416H74.82zm4.953-2.041c-.009-.277-.096-.576-.26-.897a2.079 2.079 0 00-.741-.82c-.338-.225-.789-.337-1.352-.337-.564 0-1.027.108-1.391.325a2.243 2.243 0 00-.806.806c-.182.312-.286.62-.312.923h4.862zM88.164 18h-3.302V7.327h3.302v1.729H88.1c.061-.208.226-.473.494-.793.278-.32.659-.607 1.144-.858.486-.26 1.07-.39 1.755-.39.494 0 .94.073 1.34.22.407.14.697.278.87.417l-1.3 2.704c-.112-.139-.325-.282-.637-.43-.303-.147-.684-.22-1.144-.22-.546 0-1 .151-1.365.455a2.758 2.758 0 00-.819 1.092c-.182.425-.273.823-.273 1.196v5.55z" fill="#000"/></svg>