<svg width="125" height="21" fill="none" xmlns="http://www.w3.org/2000/svg"><path fill-rule="evenodd" clip-rule="evenodd" d="M27.636.595l-8.524 19.192-.257.567h5.735l1.676-3.951h8.5l1.678 3.95h5.735L33.37.596h-5.733zm0 12.632l2.867-6.716 2.893 6.716h-5.76zM5.733 4.547h13.638V.595H0v19.759h5.733V11.65h11.65V7.905H5.733V4.547zm57.134 9.48L51.812.595h-5.527v19.759h5.527V7.697l10.255 12.657h6.327V.594h-5.527v13.433zm48.816 3.77c-1.989.026-3.538-.62-4.623-1.911-1.085-1.318-1.627-3.1-1.603-5.398 0-2.221.518-4.004 1.499-5.32 1.007-1.37 2.583-1.99 4.727-1.99 2.066.025 3.538.543 4.365 1.602.826 1.06 1.395 2.3 1.704 3.718l6.742-.025c-.44-2.712-1.679-4.804-3.693-6.224C118.759.8 115.789.053 111.889 0c-4.416-.024-7.645.93-9.712 2.868-2.067 1.936-3.075 4.494-3.048 7.619.027 3.926 1.266 6.638 3.746 8.135 2.452 1.525 5.475 2.3 9.014 2.351 3.9.051 6.87-.697 8.911-2.248 2.014-1.522 3.253-3.615 3.693-6.275h-6.742c-.619 3.538-2.633 5.32-6.069 5.346l.001.001zM89.291 13.2c0 1.292-.518 2.274-1.577 2.972-1.058.696-2.376 1.057-3.977 1.057-1.421.026-2.687-.309-3.823-.98-1.163-.673-1.731-1.68-1.731-3.048V.595h-5.734v13.07c0 1.42.386 2.608 1.163 3.539.749.93 1.704 1.678 2.866 2.247 1.137.541 2.35.954 3.668 1.186a23.65 23.65 0 003.591.363c.982 0 2.118-.104 3.41-.31a14.827 14.827 0 003.718-1.162c1.163-.569 2.144-1.318 2.945-2.274.826-.955 1.213-2.143 1.213-3.59V.595h-5.732V13.2z" fill="#525252"/></svg>