<svg width="114" height="30" fill="none" xmlns="http://www.w3.org/2000/svg"><path d="M13.122 23.271A10.405 10.405 0 012.84 14.448h3.427l6.647 6.475c1.003 1.136 1.836 1.837 2.972 1.288a1.922 1.922 0 001.212-1.628v-9.146h3.086a1.329 1.329 0 001.25-1.25 1.324 1.324 0 00-1.193-1.458h-3.143V3.428c5.264 2.196 7.744 8.236 5.567 13.5a10.357 10.357 0 01-9.543 6.343zM9.24 3.371v8.312H2.878A10.4 10.4 0 019.24 3.371zm5.226-.663v16.133l-4.052-4.393c.436.094.871-.057 1.174-.38.265-.302.34-.7.246-1.078V2.708a9.982 9.982 0 011.288-.076c.473 0 .928.038 1.344.076zM13.122 0C5.946.038.114 5.813 0 12.99c0 7.29 5.908 13.178 13.179 13.178 7.27 0 13.178-5.907 13.178-13.178C26.3 5.738 20.374-.056 13.122 0z" fill="#767676"/><path d="M36.563 28.289l-1.041-2.67h-.493l1.553 3.844 1.041-2.708 1.042 2.708 1.552-3.844h-.492l-1.06 2.67-1.042-2.765-1.06 2.765zm4.904-2.689h.454v3.711h-.454V25.6zm1.78 0v.417h.87v3.294h.455v-3.294h.871V25.6h-2.196zm9.96 0v1.496h-1.761V25.6h-.455v3.711h.455v-1.78h1.76v1.8h.455v-3.712h-.455V25.6zm4.165 0v.417h.871v3.294h.455v-3.294h.87V25.6h-2.196zm10.66 0v.417h.871v3.294h.455v-3.294h.87V25.6h-2.196zm5.719 0v1.496H71.99V25.6h-.455v3.711h.455v-1.78h1.76v1.8h.455v-3.712h-.454V25.6zm2.14 0v3.711h1.968v-.416h-1.495v-1.42h1.458v-.417h-1.458v-1.041h1.495V25.6H75.89zm5.926 0v3.711h.454v-1.836h1.288v-.417H82.27v-1.041h1.345V25.6h-1.8zm7.233 0v.417h.87v3.294h.455v-3.294h.871V25.6H89.05zm11.455 0v3.711h2.008v-.416h-1.553v-1.42h1.496v-.417h-1.496v-1.041h1.553V25.6h-2.008zm-67.028.72a.586.586 0 00-.587-.341.591.591 0 00-.625.549c0 .284.284.454.492.549l.246.132c.55.209.928.493.928 1.137a1.156 1.156 0 01-1.117 1.174h-.057a1.18 1.18 0 01-1.136-1.042l.454-.076c0 .398.303.701.701.72h.019a.684.684 0 00.663-.72c0-.416-.341-.587-.625-.72l-.246-.132c-.417-.17-.796-.416-.796-.928.038-.567.53-.984 1.08-.965.397 0 .757.208.965.549l-.36.114zm16 0a1.41 1.41 0 00-.966-.38c-.833 0-1.496.682-1.496 1.516 0 .833.681 1.495 1.515 1.495.36 0 .72-.132.984-.378v.549c-.284.17-.625.246-.965.246a1.907 1.907 0 01-1.913-1.912c0-1.08.871-1.97 1.95-1.97.322 0 .644.076.928.247v.587h-.038zm14.636 1.117c0-.815-.644-1.496-1.458-1.496a1.427 1.427 0 00-1.458 1.42v.095a1.447 1.447 0 001.42 1.495 1.447 1.447 0 001.496-1.42v-.094zm.454 0c0 1.06-.852 1.912-1.912 1.912-1.041.02-1.913-.814-1.913-1.855v-.057c0-1.06.853-1.932 1.932-1.932a1.932 1.932 0 011.893 1.932zm20.98-1.837v2.177c0 .587.17 1.174.871 1.174.7 0 .871-.549.871-1.174V25.6h.454v2.348a1.297 1.297 0 01-1.155 1.42h-.17a1.326 1.326 0 01-1.344-1.287V25.6h.473zm7.48 0v2.177c0 .587.17 1.174.87 1.174s.871-.549.871-1.174V25.6h.455v2.348a1.297 1.297 0 01-1.155 1.42h-.17a1.326 1.326 0 01-1.345-1.287V25.6h.473zm4.297 1.761h.133c.454 0 1.004-.076 1.004-.663 0-.587-.55-.662-1.004-.662h-.133v1.325zm1.837 1.97h-.549l-1.08-1.553h-.208v1.552h-.454v-3.71h.55c.321-.038.662.038.965.17.303.19.492.512.492.871.019.53-.36.985-.87 1.042l1.154 1.628z" fill="#1B1B18"/><path d="M40.369 7.801h5.017v2.462H40.37V7.8zm0 3.636h5.017V22.04H40.37V11.437zm15.299 3.806c.36.037.7.113 1.041.208.17.094.341.208.493.34a.94.94 0 01.246.417c.114.246.19.511.208.795v5.094h4.885v-7.063a3.33 3.33 0 00-.075-.966 3.402 3.402 0 00-.417-.927 2.656 2.656 0 00-.492-.625 3.151 3.151 0 00-1.004-.72 6.37 6.37 0 00-2.29-.416c-3.636-.246-5.606 1.287-5.606 1.287v-1.211h-4.923v10.603h4.923v-4.772c0-.037.133-.34.17-.454a3.34 3.34 0 012.841-1.59zm42.11-3.806h4.716v.927a6.185 6.185 0 015.131-.965c3.389.795 2.632 5.301 2.632 5.301h-4.999a1.305 1.305 0 000-.662 1.261 1.261 0 00-1.212-1.288c-.094 0-.189 0-.284.02-.7.075-1.231.643-1.249 1.343v5.89h-4.715V11.436h-.02zM71.63 18.67c-1.458 0-2.67-.966-2.67-2.14 0-1.212 1.212-2.178 2.67-2.178a2.744 2.744 0 012.632 1.591v1.08a2.701 2.701 0 01-2.632 1.647zm2.632-10.831v4.014a4.185 4.185 0 00-1.553-.587 10.419 10.419 0 00-2.972-.246 5.817 5.817 0 00-5.776 5.68 5.544 5.544 0 005.586 5.51c.985.038 1.988-.018 2.973-.17a5.487 5.487 0 001.76-.72v.796h4.924V7.839h-4.942zm11.531 7.536c0-.72 1.344-2.045 2.84-1.874 1.667-.038 2.632 1.173 2.594 1.874h-5.434zm2.178 2.291c2.84 0 8.407-.038 8.407-.038.094-.284.113-.587.075-.87a5.306 5.306 0 00-2.177-4.394c-1.136-.927-3.257-1.496-5.775-1.496-2.708 0-5.094.758-6.097 1.837h-.038a5.652 5.652 0 00-1.704 4.09 5.771 5.771 0 002.594 4.64 10.58 10.58 0 005.302 1.249c2.972 0 5.85-.871 6.892-2.462.284-.416.511-.89.625-1.382h-4.848a3.442 3.442 0 01-2.385.833c-1.288 0-2.916-.662-3.049-1.912h2.178M38.4 10.263V7.8h-4.09a2.494 2.494 0 00-2.462 2.462v1.174H30.39v3.01h1.458v7.612h4.923v-7.555h1.666v-3.01h-1.836c0-.72.17-1.175.833-1.175h.966m73.883 1.668l.492.796h-.284l-.492-.796h-.303v.796h-.246v-1.667h.757c.284 0 .587.076.587.455.038.246-.189.378-.511.416zm-.549-.246h.284c.208 0 .587.038.587-.246 0-.17-.209-.208-.417-.208h-.454v.454zm.341 1.704a1.523 1.523 0 01-1.553-1.496v-.056c0-.852.682-1.553 1.534-1.553s1.552.7 1.552 1.553a1.52 1.52 0 01-1.533 1.552zm0-.246a1.289 1.289 0 000-2.575 1.29 1.29 0 00-1.288 1.288c-.019.7.549 1.287 1.25 1.287h.038z" fill="#767676"/></svg>