<svg width="124" height="21" fill="none" xmlns="http://www.w3.org/2000/svg"><path d="M40.285 4.386h8.104v1.777h-6.036v3.08h5.291v1.675h-5.291v5.188h-2.067V4.386zm16.227 11.72h-1.84v-1.179h-.041c-.455.847-1.467 1.406-2.419 1.406-2.212 0-3.162-1.117-3.162-3.328V7.63h1.86v5.208c0 1.489.6 2.026 1.634 2.026 1.55 0 2.087-.991 2.087-2.315V7.63h1.88v8.476zm1.963-8.475h1.881v9.24c0 1.694-.682 2.645-2.418 2.645-.351 0-.599-.042-.848-.062v-1.488c.249.041.455.062.642.062.681 0 .743-.413.743-1.24V7.63zm1.881-1.468h-1.88V4.386h1.88v1.777zm3.969 9.943h-1.881V7.61h1.88v8.496zm0-9.943h-1.881V4.386h1.88v1.777zm6.573-1.777h8.433v1.777h-6.387v3.08h5.911v1.675h-5.911v3.431h6.511v1.757h-8.557V4.386zm9.819 0h1.88v11.72h-1.88V4.386zm4.795 7.978c0 1.322.724 2.501 2.273 2.501 1.075 0 1.737-.475 2.068-1.405h1.777c-.413 1.86-1.983 2.894-3.845 2.894-2.665 0-4.154-1.86-4.154-4.465 0-2.419 1.571-4.486 4.113-4.486 2.667 0 4.32 2.419 4.01 4.961h-6.242zm4.382-1.24c-.062-1.179-.868-2.253-2.13-2.253-1.301 0-2.19.992-2.231 2.253h4.36zm8.908-.641c-.144-1.033-.909-1.591-1.942-1.591-.972 0-2.336.517-2.336 3.08 0 1.405.62 2.893 2.253 2.893 1.075 0 1.84-.724 2.025-1.943h1.882c-.352 2.191-1.716 3.411-3.886 3.411-2.667 0-4.113-1.88-4.113-4.382 0-2.564 1.385-4.568 4.175-4.568 1.964 0 3.638.992 3.824 3.08h-1.882v.02zm2.357-2.852h1.406V5.089h1.86V7.63h1.695v1.385h-1.695v4.547c0 .765.062 1.157.909 1.157.269 0 .517 0 .786-.062v1.448c-.414.04-.806.102-1.22.102-1.943 0-2.314-.763-2.356-2.17V9.036h-1.406V7.631h.021zm13.828 8.475h-1.881V7.61h1.881v8.496zm0-9.943h-1.881V4.386h1.881v1.777zm7.152 4.32c-.145-1.033-.91-1.591-1.943-1.591-.971 0-2.335.517-2.335 3.08 0 1.405.619 2.893 2.252 2.893 1.076 0 1.841-.724 2.026-1.943H124c-.352 2.191-1.716 3.411-3.887 3.411-2.666 0-4.113-1.88-4.113-4.382 0-2.564 1.386-4.568 4.176-4.568 1.963 0 3.637.992 3.824 3.08h-1.861v.02zm-9.983-3.038a3.044 3.044 0 00-.558-.042c-1.157 0-2.274.972-2.481 1.881h-.041V7.651h-1.757v8.475h1.881v-4.03c0-1.881 1.012-2.915 2.294-2.915.207 0 .434.041.662.062V7.445" fill="#000"/><path d="M31.522 1.864c-1.86-1.571-4.32-2.17-6.924-1.716-2.336.413-4.486 1.653-6.14 3.369L19.1.479H6.842c-1.55 0-2.956 1.157-3.266 2.687A7910.432 7910.432 0 000 20.012h6.015l1.592-7.441h7.4c.186 2.397 1.198 4.464 2.914 5.91 1.86 1.572 4.32 2.171 6.925 1.716 1.963-.35 3.844-1.28 5.456-2.707a12.763 12.763 0 003.493-5.106l.042-.123H32.43l-.02.062c-1.385 3.41-4.445 5.994-7.793 6.573-2.211.393-4.279-.124-5.85-1.427-1.591-1.343-2.48-3.368-2.48-5.705 0-4.857 3.845-9.507 8.558-10.334 2.211-.393 4.278.124 5.849 1.425 1.447 1.22 2.315 2.998 2.46 5.065H19.017l-.29 1.405h15.73v-.102c.02-.311.02-.539.02-.683-.02-2.687-1.054-5.085-2.955-6.676zM8.93 6.287c.102-.455.516-.806.971-.806h6.965a12.227 12.227 0 00-1.22 2.44H8.579l.352-1.634z" fill="#3A3A3A"/></svg>