<svg width="71" height="52" fill="none" xmlns="http://www.w3.org/2000/svg"><path d="M1.145 25.251h3.397v4.64c.683-.942 1.45-1.44 2.6-1.44 2.257 0 3.314 1.44 3.314 3.988V38H7.059v-4.91c0-.921-.228-1.74-1.192-1.74-1.046 0-1.325.725-1.325 1.916V38H1.145" fill="#5B5B5B"/><path d="M1.145 25.251h3.397v4.64c.683-.942 1.45-1.44 2.6-1.44 2.257 0 3.314 1.44 3.314 3.988V38H7.059v-4.91c0-.921-.228-1.74-1.192-1.74-1.046 0-1.325.725-1.325 1.916V38H1.145V25.25v0z" stroke="#5B5B5B" stroke-width=".353"/><path d="M15.624 28.918h-3.49v9.3h3.49v-9.3z" fill="#5B5B5B"/><path d="M15.624 28.918h-3.49v9.3h3.49v-9.3z" stroke="#5B5B5B" stroke-width=".353"/><path d="M20.741 25.447h-3.449v12.75h3.449v-12.75z" fill="#5B5B5B"/><path d="M20.741 25.447h-3.449v12.75h3.449v-12.75z" stroke="#5B5B5B" stroke-width=".353"/><path d="M24.966 35.37c0 .373.135.653.373.84.218.175.518.279.86.279.539 0 1.108-.176 1.108-.829 0-1.48-5.406-.3-5.406-3.863 0-2.351 2.34-3.045 4.174-3.045 1.916 0 4.174.456 4.38 2.9h-3.179a.942.942 0 00-.342-.663c-.186-.155-.435-.228-.704-.228-.611 0-.994.197-.994.653 0 1.284 5.572.424 5.572 3.863 0 1.916-1.512 3.221-4.754 3.221-2.02 0-4.246-.652-4.433-3.128" fill="#fff"/><path d="M24.956 35.38c0 .373.135.653.373.85.217.176.528.28.87.28.549 0 1.118-.177 1.118-.83 0-1.49-5.458-.3-5.458-3.904 0-2.382 2.362-3.066 4.215-3.066 1.937 0 4.216.466 4.423 2.932h-3.21a.966.966 0 00-.342-.674c-.187-.155-.446-.227-.715-.227-.611 0-1.005.196-1.005.652 0 1.295 5.635.425 5.635 3.905 0 1.936-1.533 3.252-4.796 3.252-2.04 0-4.288-.653-4.474-3.16h3.366v-.01z" stroke="#231815" stroke-width=".346"/><path d="M37.81 32.49c-.02-.404-.145-.725-.352-.952-.207-.249-.497-.373-.87-.373-1.264 0-1.47 1.419-1.47 2.517 0 1.387.486 2.299 1.47 2.299.87 0 1.212-.653 1.315-1.367H41.3c-.29 2.796-2.361 3.832-4.712 3.832-2.735 0-4.837-1.668-4.837-4.785 0-3.149 2.04-4.961 4.837-4.961 2.268 0 4.402 1.056 4.65 3.78" fill="#fff"/><path d="M37.83 32.48c-.02-.404-.144-.725-.362-.963-.207-.249-.507-.373-.88-.373-1.274 0-1.492 1.44-1.492 2.538 0 1.398.487 2.32 1.492 2.32.88 0 1.222-.653 1.326-1.388h3.428c-.29 2.817-2.382 3.863-4.754 3.863-2.766 0-4.889-1.688-4.889-4.826 0-3.18 2.061-5.003 4.889-5.003 2.289 0 4.443 1.067 4.692 3.811h-3.45v.021z" stroke="#231815" stroke-width=".346"/><path d="M42.398 25.49h3.366v4.608c.684-.932 1.44-1.419 2.58-1.419 2.237 0 3.283 1.42 3.283 3.957v5.52H48.26v-4.868c0-.911-.228-1.719-1.181-1.719-1.036 0-1.316.725-1.316 1.895v4.692h-3.366" fill="#fff"/><path d="M42.356 25.447h3.398v4.64c.683-.942 1.45-1.44 2.6-1.44 2.257 0 3.314 1.44 3.314 3.988v5.562H48.27v-4.899c0-.922-.227-1.74-1.19-1.74-1.047 0-1.326.725-1.326 1.916v4.723h-3.398v-12.75z" stroke="#231815" stroke-width=".346"/><path d="M59.446 32.542c0-.838-.694-1.595-1.491-1.595-1.005 0-1.575.612-1.575 1.595m-.217 1.865c0 1.087.777 1.812 1.668 1.812.538 0 1.014-.259 1.263-.808h3.221c-.58 2.29-2.724 3.045-4.692 3.045-2.724 0-4.826-1.688-4.826-4.785 0-3.024 2.092-4.95 4.806-4.95 3.138 0 5.033 2.35 4.981 5.696h-6.421v-.01z" fill="#fff"/><path d="M59.446 32.542c0-.838-.694-1.595-1.491-1.595-1.005 0-1.575.612-1.575 1.595m-.217 1.865c0 1.087.777 1.812 1.668 1.812.538 0 1.014-.259 1.263-.808h3.221c-.58 2.29-2.724 3.045-4.692 3.045-2.724 0-4.826-1.688-4.826-4.785 0-3.024 2.092-4.95 4.806-4.95 3.138 0 5.033 2.35 4.981 5.696h-6.421v-.01z" fill="#fff"/><path d="M56.152 34.407c0 1.097.787 1.823 1.678 1.823a1.35 1.35 0 001.274-.819h3.252c-.59 2.31-2.745 3.066-4.733 3.066-2.745 0-4.868-1.699-4.868-4.826 0-3.056 2.102-5.003 4.847-5.003 3.17 0 5.075 2.382 5.034 5.748h-6.484v.01z" stroke="#231815" stroke-width=".346"/><path d="M59.457 32.532c0-.85-.705-1.616-1.502-1.616-1.015 0-1.585.622-1.585 1.616h3.087z" stroke="#231815" stroke-width=".346"/><path d="M63.765 28.97h3.086v1.864h.031c.477-1.44 1.305-2.124 2.63-2.124.146 0 .29.031.446.052v3.843c-.362-.238-.476-.28-.704-.3-1.388-.073-2.092.704-2.092 2.692v3.18h-3.397" fill="#fff"/><path d="M63.723 28.928h3.128v1.885h.031c.477-1.45 1.326-2.144 2.672-2.144.145 0 .3.031.446.052v3.884c-.363-.249-.477-.29-.715-.3-1.409-.073-2.123.714-2.123 2.713v3.21h-3.45v-9.3h.011z" stroke="#231815" stroke-width=".346"/><path d="M1 23.925h19.772c.549-1.957 1.315-3.697 4.226-6.587 1.48-1.419 5.551-4.485 7.54-5.116H11.606c-1.098.787-4.454 3.47-6.1 5.313-1.533 1.626-4.009 4.66-4.506 6.39zM54.516 11.32l-2.983-2.744H18.576c-.549.114-4.06 1.854-5.386 2.755m10.72-4.309c1.098-.725 2.413-1.025 2.797-1.14H48.54l1.232 1.12M32.476 5.013s-.28-.02 0-.186.383-.28.6-.332h13.92l.58.508M40.669 3.19l-.25.684 5.894-.01-.725-.674m-4.174-1.678l-.155.435 2.91.01-.435-.445M41.839.725l1.046.01L42.087 0m-5.935 12.21h19.275c-3.822.426-11.755 1.627-14.935 2.808-2.776.984-6.535 2.91-7.416 3.977" fill="#5B5B5B"/><path d="M15.573 25.406h-3.397v2.6h3.397v-2.6z" fill="#fff"/><path d="M15.624 25.365h-3.49v2.693h3.49v-2.693z" stroke="#231815" stroke-width=".346"/><path d="M1 43.159c0-1.14.694-1.409 1.875-1.409h1.533c1.853 0 2.092.362 2.081 1.47H5.184v-.103c0-.28-.228-.362-.61-.362h-1.42c-.683 0-.818.3-.818.776v.425c0 .57.135.777.746.777H4.47c.59 0 .766-.052.766-.539h1.305v.363c0 .652-.259 1.17-1.564 1.17H2.875c-1.17 0-1.875-.27-1.875-1.408m6.318.01c0 1.14.694 1.408 1.875 1.408h2.092c1.17 0 1.875-.269 1.875-1.408v-1.16c0-1.14-.694-1.409-1.875-1.409H9.193c-1.18 0-1.875.27-1.875 1.409m1.336.362c0-.486.125-.776.819-.776h1.522c.684 0 .818.3.818.776v.425c0 .57-.134.777-.745.777H9.4c-.621 0-.746-.218-.746-.777v-.425zm5.366-1.74h2.009l1.47 2.507 1.482-2.507h1.999v3.895h-1.274v-2.797h-.01l-1.71 2.797h-.973l-1.71-2.797h-.01v2.797H14.02" fill="#5B5B5B"/><path d="M22.201 45.686h1.15v-.984h2.278c.808 0 1.057-.663 1.057-1.243v-.331c0-.767-.26-1.337-1.347-1.337h-3.117m1.129.974h1.678c.341 0 .466.155.466.414v.156c0 .228-.104.414-.373.414H23.34v-.984h.01zm4.278-.974h4.08v.912h-2.94v.621h2.785v.808h-2.786v.622h3.014v.932H27.63m4.897-3.895h4.36v.974h-1.605v2.92h-1.15v-2.92h-1.605m5.19-.974h4.09v.912h-2.94v.621h2.786v.808h-2.786v.622h3.003v.932h-4.153m5.178-3.895h1.772l2.154 2.838h.01v-2.837h1.15v3.894h-1.782l-2.143-2.828h-.01v2.828h-1.15m6.099-2.527c0-1.14.611-1.409 1.647-1.409h1.346c1.627 0 1.844.362 1.834 1.47h-1.15v-.103c0-.28-.197-.362-.539-.362H50.88c-.6 0-.715.3-.715.776v.425c0 .57.114.777.653.777h1.222c.518 0 .673-.052.673-.539h1.15v.363c0 .652-.228 1.17-1.377 1.17h-1.844c-1.036 0-1.647-.27-1.647-1.408m5.894-2.528h4.08v.912h-2.93v.621h2.785v.808h-2.786v.622h3.004v.932h-4.153m9.124-3.895h-1.119v3.895h1.12V41.79zm.891 0h1.74l2.113 2.838h.01v-2.837h1.12v3.894h-1.74l-2.114-2.828h-.01v2.828h-1.119" fill="#231815"/><path d="M1 49.218c0-1.14.694-1.409 1.875-1.409h1.533c1.853 0 2.092.363 2.081 1.47H5.184v-.103c0-.28-.228-.362-.61-.362h-1.42c-.683 0-.818.3-.818.776v.425c0 .57.135.777.746.777H4.47c.59 0 .766-.052.766-.539h1.305v.363c0 .652-.259 1.17-1.564 1.17H2.875c-1.17 0-1.875-.269-1.875-1.408m6.287 0c0 1.139.694 1.408 1.875 1.408h2.092c1.17 0 1.875-.269 1.875-1.408v-1.16c0-1.14-.694-1.409-1.875-1.409H9.162c-1.181 0-1.875.27-1.875 1.409m1.347.362c0-.487.134-.777.818-.777h1.522c.684 0 .819.3.819.777v.425c0 .57-.125.777-.746.777H9.379c-.621 0-.745-.218-.745-.777v-.425zm5.334-1.73h2.01l1.47 2.507 1.47-2.506h2.01v3.894h-1.274v-2.796h-.01l-1.71 2.796h-.973l-1.709-2.796h-.01v2.796h-1.274" fill="#5B5B5B"/><path d="M22.129 47.85h1.72l1.273 2.507 1.274-2.506h1.72v3.894h-1.088v-2.796h-.01l-1.471 2.796h-.85l-1.47-2.796h-.01v2.796h-1.088m6.794-3.895h1.118v2.248c0 .497.166.684.632.684h1.109c.455 0 .631-.197.631-.684v-2.247h1.119v2.506c0 .974-.466 1.43-1.502 1.43h-1.605c-1.036 0-1.502-.467-1.502-1.43m5.417-2.507h1.74l2.113 2.828h.01v-2.827h1.119v3.894h-1.74l-2.113-2.828h-.01v2.828h-1.12m6.971-3.895h-1.119v3.895h1.119V47.85zm.788 1.368c0-1.14.6-1.409 1.615-1.409h1.326c1.595 0 1.802.363 1.792 1.47h-1.119v-.103c0-.28-.196-.362-.528-.362h-1.222c-.59 0-.704.3-.704.776v.425c0 .57.114.777.642.777h1.2c.508 0 .653-.052.653-.539h1.118v.363c0 .652-.217 1.17-1.346 1.17h-1.813c-1.015 0-1.615-.269-1.615-1.408m5.137 1.367h1.254l.331-.684h2.279l.352.684h1.253l-2.01-3.894h-1.46m.715.9l.725 1.461h-1.44l.715-1.46zm2.413-.901h4.288v.964h-1.584v2.93h-1.119v-2.93h-1.585m5.998-.964H57.24v3.895h1.119V47.85zm.797 2.528c0 1.139.6 1.408 1.616 1.408h1.802c1.015 0 1.615-.269 1.615-1.408v-1.16c0-1.14-.6-1.409-1.615-1.409H60.76c-1.015 0-1.616.27-1.616 1.409m1.16.362c0-.487.114-.777.705-.777h1.315c.59 0 .704.3.704.777v.425c0 .57-.114.777-.642.777h-1.44c-.528 0-.642-.218-.642-.777v-.425zm4.6-1.73h1.74l2.113 2.828h.01v-2.827h1.12v3.894h-1.74l-2.114-2.828h-.01v2.828h-1.119" fill="#231815"/></svg>