<svg width="61" height="61" fill="none" xmlns="http://www.w3.org/2000/svg"><path fill-rule="evenodd" clip-rule="evenodd" d="M.542 30.45C.542 13.929 13.929.542 30.45.542S60.358 13.929 60.358 30.45 46.97 60.358 30.45 60.358.542 46.97.542 30.45z" fill="#8D8D8D"/><path d="M.542 30.45C.542 13.929 13.929.542 30.45.542S60.358 13.929 60.358 30.45 46.97 60.358 30.45 60.358.542 46.97.542 30.45z" stroke="#8D8D8D" stroke-width=".342"/><path fill-rule="evenodd" clip-rule="evenodd" d="M18.821 7.708a4.564 4.564 0 00-4.558 4.557v1.352a5.22 5.22 0 00-2.919-.873c-2.907 0-5.24 2.369-5.24 5.276a5.223 5.223 0 005.24 5.24c2.908 0 5.276-2.333 5.276-5.24a5.32 5.32 0 00-.419-2.106v-3.649c0-1.447 1.173-2.631 2.62-2.62h10.97v3.829h-6.089c-.92 0-1.686.73-1.686 1.663v5.754c0 .921.765 1.663 1.686 1.663h6.09v2.656h-6.09c-.873 0-1.579.658-1.663 1.507 0 .048-.035.096-.035.155v17.24h-5.815v-17.42c-.071-.85-.813-1.507-1.686-1.507H6.51V45.99h1.926V27.088h5.336a.48.48 0 01.479.478v16.522H10.1v1.902h21.582V32.878c0-.155.143-.275.299-.275h1.089c.155 0 .299.108.299.275V45.99h9.642V32.878c0-.155.143-.275.3-.275h1.088c.155 0 .299.12.299.275V45.99h9.678V26.849c0-.048-.024-.096-.024-.156a1.656 1.656 0 00-1.663-1.507H33.381v1.902h18.602a.48.48 0 01.479.478v16.522h-5.85V32.364c0-.921-.73-1.687-1.663-1.687h-2.165c-.922 0-1.663.765-1.663 1.687v11.724h-5.85V32.364c0-.921-.73-1.687-1.663-1.687h-2.165c-.922 0-1.663.765-1.663 1.687v11.724h-5.838v-16.51a.48.48 0 01.478-.478h7.262v-6.448h-7.453a.296.296 0 01-.3-.3v-4.677c0-.155.144-.3.3-.3h7.453V7.72h-12.86v-.011zm-7.477 6.938c1.855 0 3.374 1.531 3.374 3.374 0 1.854-1.531 3.35-3.374 3.35a3.344 3.344 0 01-3.35-3.35c0-1.854 1.496-3.374 3.35-3.374z" fill="#fff"/><path fill-rule="evenodd" clip-rule="evenodd" d="M8.007 18.008a3.344 3.344 0 013.35-3.35 3.344 3.344 0 013.35 3.35c0 4.462-6.7 4.462-6.7 0zm-1.914 0a5.264 5.264 0 015.264-5.336c2.931 0 5.3 2.405 5.264 5.336-.096 6.915-10.432 6.915-10.528 0z" fill="#231F20"/><path fill-rule="evenodd" clip-rule="evenodd" d="M11.357 23.451a5.435 5.435 0 01-5.431-5.431c0-3.003 2.428-5.467 5.431-5.467s5.431 2.464 5.431 5.467a5.427 5.427 0 01-5.43 5.431z" fill="#231F20"/><path fill-rule="evenodd" clip-rule="evenodd" d="M11.357 21.19a3.153 3.153 0 003.17-3.17c0-1.758-1.412-3.206-3.17-3.206-1.76 0-3.195 1.436-3.207 3.206a3.199 3.199 0 003.207 3.17z" fill="#8D8D8D"/></svg>