<svg width="97" height="32" fill="none" xmlns="http://www.w3.org/2000/svg"><g clip-path="url(#clip0_403_6555)"><path d="M33.83 17.5L31 29.58h-1.53l2.79-12.08h1.57zm1.38 5.75c.21-.91.36-1.63.47-2.35h1.4l-.24 1.44a4.21 4.21 0 013.24-1.62c1.2 0 2.9.72 2.21 3.69l-1.19 5.17h-1.55l1.16-5c.32-1.4.07-2.57-1.42-2.57a3 3 0 00-2.48 1.62 2.419 2.419 0 00-.28.73l-1.2 5.22h-1.58l1.46-6.33zM54 16.85l-2.46 10.49c-.18.77-.35 1.64-.45 2.24h-1.4l.31-1.51a4.1 4.1 0 01-3.32 1.7c-2.09 0-3.31-1.77-2.71-4.4.65-2.89 2.87-4.65 5-4.65a2.24 2.24 0 012.2 1.28l1.2-5.18 1.63.03zm-3.31 7.58a2.91 2.91 0 00.08-.66 1.759 1.759 0 00-1.9-1.77c-1.63 0-2.93 1.43-3.37 3.33-.44 1.9.14 3.21 1.83 3.21a3.19 3.19 0 002.74-1.88 3 3 0 00.23-.68l.39-1.55zm4.2-.82c.23-1 .42-1.9.55-2.71h1.38l-.33 1.72h.06a3.519 3.519 0 012.85-1.9c.143-.011.287-.011.43 0l-.35 1.49a2.08 2.08 0 00-.53 0 2.92 2.92 0 00-2.57 2c-.096.237-.173.48-.23.73l-1.06 4.63h-1.58l1.38-5.96zM65.7 27.5a15.84 15.84 0 00-.35 2.08h-1.42l.13-1.1a4.17 4.17 0 01-3 1.29A1.92 1.92 0 0159 27.28c.49-2.1 2.61-3.24 6-3.22v-.18c.16-.7.27-2-1.51-2a5 5 0 00-2.42.64l-.12-1.05a6.609 6.609 0 013-.76c2.65 0 2.88 1.81 2.48 3.53l-.73 3.26zm-1-2.35c-1.71 0-3.73.27-4.12 2-.24 1 .33 1.51 1.12 1.51a2.91 2.91 0 002.47-1.45 2.72 2.72 0 00.19-.51l.34-1.55zm4.38-1.9c.22-.91.35-1.63.48-2.35h1.38l-.26 1.42a3.93 3.93 0 013.11-1.6 1.93 1.93 0 012 1.74 5 5 0 011.25-1.13 3.54 3.54 0 012-.61c1.16 0 2.69.76 2 3.77L80 29.58h-1.52l1.13-4.9C80 23 79.6 22 78.35 22a2.78 2.78 0 00-2.21 1.42 3.101 3.101 0 00-.31.79l-1.24 5.36h-1.54l1.2-5.2C74.57 23 74.19 22 73 22a2.94 2.94 0 00-2.32 1.58 2.38 2.38 0 00-.3.77l-1.2 5.22h-1.56l1.46-6.32zM89 27.5a14.326 14.326 0 00-.35 2.08h-1.43l.13-1.1a4.168 4.168 0 01-3 1.29 1.92 1.92 0 01-2.08-2.49c.49-2.1 2.61-3.24 6-3.22v-.18c.16-.7.27-2-1.51-2a4.94 4.94 0 00-2.42.64l-.12-1.05a6.609 6.609 0 013-.76c2.65 0 2.88 1.81 2.48 3.53L89 27.5zm-1-2.35c-1.71 0-3.73.27-4.12 2-.24 1 .33 1.51 1.12 1.51a2.91 2.91 0 002.47-1.45 2.15 2.15 0 00.18-.51l.35-1.55zm7.22-6.33l-.48 2.08H97l-.28 1.2h-2.25l-1.08 4.68c-.25 1.08-.09 1.68.79 1.68a3.32 3.32 0 00.94-.1l-.21 1.2a4.72 4.72 0 01-1.44.21 1.779 1.779 0 01-1.55-.66 3.06 3.06 0 01-.09-2.28l1.09-4.73h-1.34l.28-1.2h1.34l.37-1.61 1.65-.47z" fill="#000"/><path d="M17.82 31.16a7.79 7.79 0 100-15.58 7.79 7.79 0 000 15.58z" fill="#A7A7A7"/><path d="M6.81 23.37a11 11 0 0118.8-7.77V0H0v31.16h10.05a11 11 0 01-3.24-7.79z" fill="#4A4A4A"/></g><defs><clipPath id="clip0_403_6555"><path fill="#fff" d="M0 0h97v31.16H0z"/></clipPath></defs></svg>