<svg width="96" height="42" fill="none" xmlns="http://www.w3.org/2000/svg"><path d="M28.263 1.709s-2.216.362-4.584.973a67.02 67.02 0 00-3.492.993v-.014c-.68.21-1.34.435-1.991.66a3.729 3.729 0 011.11 2.534c.528-.23 1.062-.455 1.61-.675v-.005c.611-.22 2.264-.821 3.688-1.3 1.776-.603 4.187-1.342 4.187-1.342C35.811 1.596 43.584.472 50.826.525 42.476.026 34.881.51 28.266 1.71M94.72 28.12c-7.514 6.824-24.63 10.803-44.183 10.803-26.56 0-43.724-7.792-44.923-18.1C5.168 16.948 8.22 13.2 13.293 10a3.763 3.763 0 01-1.502-2.936C4.468 10.905.323 15.958.323 21.09c0 11.355 20.312 20.986 50.488 20.565 20.527-.284 36.126-6.139 44.015-13.304l-.118-.23" fill="#5C5C5C"/><path d="M12.785 6.993a2.77 2.77 0 115.542 0 2.77 2.77 0 01-2.773 2.769 2.766 2.766 0 01-2.769-2.769zm1.546 20.845v-15.89l2.612-.346v16.236h-2.612m11.393 0v-9.093c0-1.037-.093-1.462-.299-1.756-.185-.264-.508-.342-.856-.342-.503 0-1.262.426-1.887 1.194v9.996h-2.597v-9.912c0-1.624-.21-2.529-.348-3.273l2.44-.635c.07.24.3.9.324 1.594.665-.827 1.887-1.517 3.081-1.517.925 0 1.658.372 2.118.959.534.665.622 1.565.622 2.47v10.315h-2.597m11.091-16.807c-.298-.24-.782-.396-1.242-.396-.646 0-1.037.611-1.037 1.649v2.07h2.44l-.484 2.288h-1.956v11.196h-2.671V16.642h-.895v-2.289h.895s-.044-.93-.044-1.78c0-2.02.665-3.081 1.286-3.614.626-.504 1.335-.666 2.006-.666.964 0 1.751.216 2.44.72l-.738 2.02m2.164 16.806V14.442l2.647-.348v13.744h-2.646zm1.267-15.365a1.709 1.709 0 01-1.702-1.727c0-.953.783-1.722 1.746-1.722.945 0 1.707.768 1.707 1.722 0 .959-.782 1.727-1.75 1.727m10.35 15.364v-9.093c0-1.037-.088-1.462-.299-1.756-.18-.264-.504-.342-.85-.342-.51 0-1.268.426-1.889 1.194v9.996h-2.602v-9.912c0-1.624-.206-2.529-.343-3.273l2.44-.635c.07.24.3.9.324 1.594.665-.827 1.883-1.517 3.081-1.517.92 0 1.658.372 2.118.959.529.665.621 1.565.621 2.47v10.315h-2.602m10.905-10.661c-.254-.612-.67-.983-1.335-.983-1.174 0-1.682 1.09-1.726 3.482h3.36c0-1.061-.093-1.966-.298-2.5zm-3.061 4.651v.27c0 .875.068 1.673.391 2.367.391.822 1.057 1.277 1.864 1.277.944 0 1.75-.48 2.558-1.33l1.033 1.937c-1.15 1.253-2.392 1.81-3.821 1.81-3.062 0-4.814-2.632-4.814-7.098 0-2.314.396-4.016 1.247-5.292.803-1.194 1.908-1.78 3.244-1.78 1.266 0 2.28.508 2.993 1.438.944 1.223 1.31 2.871 1.31 5.82v.583H58.44m12.31-5.45c-1.751 0-1.751 3.19-1.751 4.575 0 1.462-.044 4.838 1.819 4.838 1.727 0 1.727-3.376 1.727-4.784 0-1.463.068-4.627-1.795-4.627v-.001zm0 11.805c-3.59 0-4.535-3.825-4.56-7.122-.024-3.326 1.175-7.073 4.584-7.073 2.69 0 4.623 2.42 4.623 7.019 0 3.429-1.126 7.175-4.647 7.175m12.479-.346v-9.093c0-1.037-.093-1.462-.304-1.756-.18-.264-.503-.342-.85-.342-.505 0-1.267.426-1.889 1.194v9.996H77.59v-9.912c0-1.624-.21-2.529-.347-3.273l2.44-.635c.07.24.3.9.324 1.594.665-.827 1.883-1.517 3.081-1.517.92 0 1.658.372 2.118.959.529.665.621 1.565.621 2.47v10.315H83.23" fill="#505050"/></svg>