<svg width="106" height="20" fill="none" xmlns="http://www.w3.org/2000/svg"><g clip-path="url(#clip0_401_5026)"><path d="M12.582.425H4.831S.52.215.52 4.575v14.867L12.582.425z" fill="#4F4F4F"/><path d="M18.562.425h-3.49l-5.79 8.862 5.798 9.488h3.61l-5.725-9.673L18.562.425zm12.892 0h-8.162s-3.844 0-3.86 4.069v9.842s-.354 4.447 4.238 4.447h8.162v-2.887h-7.97s-1.31.13-1.31-1.43V10.54h8.411V7.799h-8.41V4.373s-.105-1.246 1.495-1.246h5.733L31.454.425zm28.922 0h-8.162s-3.844 0-3.86 4.069v9.842s-.354 4.447 4.238 4.447h8.162v-2.887h-7.97s-1.31.13-1.31-1.43V10.54h8.411V7.799h-8.403V4.373s-.105-1.246 1.496-1.246h5.733L60.376.425zm22.359 7.37V4.37s-.104-1.247 1.496-1.247h5.734l1.68-2.702h-8.162s-3.843 0-3.86 4.07v9.841s-.353 4.447 4.238 4.447h8.01v-2.701h-7.825s-1.31.12-1.31-1.432V7.795zm22.364-7.37h-8.162s-3.843 0-3.86 4.069v9.842s-.353 4.447 4.238 4.447h8.162v-2.887h-7.969s-1.31.13-1.31-1.43V10.54h8.411V7.799h-8.411V4.373s-.105-1.246 1.495-1.246h5.734l1.672-2.702zm-72.648 0h3.426l4.237 7.808L44.537.425h3.426L41.48 11.032v7.743h-2.983v-7.808L32.451.425zm30.645 0v18.35h2.927V6.425l7.969 12.35h2.742V.417h-2.992v12.231L65.894.425h-2.798z" fill="#000"/></g><defs><clipPath id="clip0_401_5026"><path fill="#fff" transform="translate(.103)" d="M0 0h105.795v19.86H0z"/></clipPath></defs></svg>