<svg width="117" height="32" fill="none" xmlns="http://www.w3.org/2000/svg"><path d="M38.621 31.23v-3.29h-1.737a1.74 1.74 0 01-1.737-1.745V6.635a1.159 1.159 0 011.16-1.162h2.314v-3.29H27.037l-7.727 21.3-7.724-21.301H0v3.292h2.318c.64 0 1.158.52 1.158 1.162v19.56a1.74 1.74 0 01-1.738 1.744H0v3.29h11.008v-3.29H9.27c-.96 0-1.739-.782-1.739-1.744V7.991l8.306 23.238h4.827l8.497-23.238v18.204c0 .962-.778 1.744-1.738 1.744h-1.74v3.29h12.938z" fill="#616161"/><path fill-rule="evenodd" clip-rule="evenodd" d="M38.6 20.077c0-4.82 3.186-7.586 7.115-7.586 3.93 0 7.113 2.765 7.113 7.586 0 4.82-3.16 7.587-7.113 7.587-3.93 0-7.114-2.767-7.114-7.587H38.6zm3.162 0c0-3.556 1.77-5.61 3.953-5.61s3.953 2.054 3.953 5.61c0 3.557-1.77 5.61-3.953 5.61s-3.953-2.053-3.953-5.61z" fill="#616161"/><path d="M67.26 25.516a.786.786 0 00.788-.788v-9.46a.788.788 0 00-.788-.788h-.947v-1.577h6.47v1.577h-.945a.79.79 0 00-.79.788l-.004 9.933h2.996a.787.787 0 00.79-.787v-1.577h1.734v4.415h-10.25v-1.736h.946zm10.886 0a.785.785 0 00.788-.788v-9.46a.788.788 0 00-.787-.788H77.2v-1.577h6.47v1.577h-.945a.79.79 0 00-.79.788l-.002 9.933h2.996a.784.784 0 00.787-.787v-1.577h1.736v4.415H77.2v-1.736h.946zm11.218 0a.786.786 0 00.788-.788v-9.46a.788.788 0 00-.79-.788h-.945v-1.577h11.04v4.415H97.72v-1.735a.788.788 0 00-.788-.788h-3.787v4.1h1.263a.789.789 0 00.788-.788v-.473h1.576v4.414h-1.575v-.472a.79.79 0 00-.79-.79h-1.261v4.415h4.1a.786.786 0 00.788-.787v-1.577h1.734v4.414H88.416v-1.735h.948" fill="#616161"/><path fill-rule="evenodd" clip-rule="evenodd" d="M108.397 14.796h-1.72v4.103h1.72a2.053 2.053 0 002.051-2.051 2.053 2.053 0 00-2.051-2.051v-.001zm-5.507 10.726a.786.786 0 00.789-.788v-9.465a.782.782 0 00-.488-.729.784.784 0 00-.302-.06h-.946v-1.578h6.635c2.69 0 4.868 1.262 4.868 3.629 0 1.676-1.095 2.8-2.69 3.31 2.037.599 2.23 2.518 2.69 4.144.462 1.626 1.894 1.536 1.894 1.536v1.737s-1.185.158-2.358.158c-1.172 0-1.667-.688-1.893-1.42-.225-.73-.778-2.597-.947-3.155-.168-.556-.942-2.05-2.204-2.05h-1.262l-.007 3.942c0 .437.354.788.79.788h.956l-.003 1.737h-6.47v-1.736h.948z" fill="#616161"/><path d="M53.898 25.516a.786.786 0 00.79-.788v-9.46a.79.79 0 00-.79-.788h-.946v-1.577H63.99v4.415h-1.734v-1.735a.79.79 0 00-.789-.788h-3.784v4.1h1.262a.79.79 0 00.79-.788v-.473h1.575v4.414h-1.576v-.472a.79.79 0 00-.789-.789h-1.262v4.414h4.1a.785.785 0 00.788-.787v-1.577h1.735v4.414H52.952v-1.735h.946zm9.182-15.59l.676-3.223 2.078-1.807 2.864 5.03h1.482l-3.378-5.884 4.61-4.041h-1.868L64.156 4.78 65.151 0h-1.327l-2.072 9.925h1.327l.001.001zm8.894 0L74.046.002H72.82l-2.072 9.924h1.226zm5.66-8.307l.29-1.387h-1.279l-.29 1.387h1.28zm2.498 0l.284-1.387h-1.273l-.29 1.387h1.28zm-3.053 8.47c.681 0 1.33-.19 1.946-.57.616-.379 1.09-.924 1.425-1.634.334-.711.5-1.48.5-2.305 0-.921-.264-1.652-.795-2.194-.53-.541-1.228-.812-2.095-.812-1.105 0-2 .379-2.68 1.137-.826.92-1.24 2.083-1.24 3.487 0 .573.121 1.078.363 1.516.241.438.591.776 1.05 1.015.457.24.966.36 1.526.36zm.013-.949c-.5 0-.914-.174-1.239-.524-.325-.35-.487-.863-.487-1.54 0-.366.06-.782.18-1.25a3.6 3.6 0 01.561-1.228c.255-.352.54-.62.857-.802a2.057 2.057 0 011.05-.274 1.6 1.6 0 011.234.538c.327.359.491.863.491 1.513 0 .41-.07.84-.21 1.286-.095.32-.22.62-.376.897a3.27 3.27 0 01-.565.741c-.22.217-.46.378-.717.484-.258.106-.517.16-.779.16V9.14zm7.487.948a3.09 3.09 0 001.933-.653c.566-.436 1.003-1.102 1.31-2l-1.225-.13c-.208.62-.493 1.08-.857 1.382-.363.302-.743.453-1.14.453-.398 0-.73-.153-1.002-.46-.27-.307-.406-.767-.406-1.38 0-.588.102-1.198.308-1.832.205-.634.488-1.107.85-1.418.354-.309.81-.475 1.28-.467.423 0 .765.128 1.024.385.26.258.392.614.396 1.07l1.205-.081c0-.718-.225-1.294-.677-1.73-.45-.435-1.063-.653-1.834-.653-.745 0-1.407.197-1.987.592-.58.395-1.026.972-1.337 1.73a6.045 6.045 0 00-.467 2.315c0 .907.242 1.614.727 2.119.486.505 1.12.758 1.9.758zm5.226-.162l.501-2.404 1.49-1.286 1.435 3.69h1.34l-1.855-4.509 3.067-2.68h-1.618l-3.574 3.418L91.877.002h-1.219L88.58 9.926h1.225zm6.92 0l.696-3.344c.23-1.097.59-1.871 1.08-2.322.49-.452 1.048-.677 1.675-.677.312 0 .55.074.715.223a.754.754 0 01.247.582c0 .212-.048.54-.142.982l-.955 4.556h1.225l.914-4.353c.118-.573.176-.993.176-1.26 0-.527-.166-.95-.497-1.265-.332-.316-.789-.474-1.371-.474a2.69 2.69 0 00-1.286.338c-.42.226-.87.585-1.354 1.077l.264-1.253h-1.11L95.5 9.926h1.225zm9.571.162c.853 0 1.588-.266 2.204-.799.616-.532 1.01-1.094 1.18-1.685l-1.19-.122c-.226.519-.542.916-.948 1.191-.406.276-.82.413-1.24.413-.446 0-.824-.177-1.133-.531-.31-.354-.464-.868-.464-1.54 0-.113.01-.24.027-.38h5.294c.063-.37.095-.73.095-1.082 0-.921-.256-1.648-.768-2.18-.513-.533-1.198-.8-2.055-.8a3.48 3.48 0 00-1.875.54c-.578.358-1.048.906-1.412 1.644a5.122 5.122 0 00-.545 2.285c0 .6.117 1.135.349 1.604.232.47.57.827 1.015 1.073.445.246.934.37 1.466.37v-.001zm2.667-4.387h-4.034c.212-.726.533-1.27.964-1.631.431-.361.909-.542 1.432-.542.483 0 .878.164 1.185.491.307.327.46.798.46 1.412 0 .054-.002.144-.007.27zm3.121 4.225l.61-2.884c.257-1.241.61-2.101 1.062-2.58.451-.478.891-.717 1.32-.717.253 0 .485.077.697.23l.501-1.137c-.356-.176-.656-.264-.9-.264-.37 0-.732.133-1.086.4-.355.266-.717.676-1.087 1.231l.305-1.469h-1.083l-1.503 7.19h1.164z" fill="#616161"/></svg>