<svg width="91" height="29" fill="none" xmlns="http://www.w3.org/2000/svg"><path d="M32.743 16.603c0-5.19-3.78-10.114-9.657-10.114-6.106 0-10.42 5.038-10.42 10.763 0 1.603.29 3.115.832 4.475a4.581 4.581 0 00-.675-.047h-6.64V3.283C6.183 1.107 4.886 0 3.093 0 1.297 0 0 1.107 0 3.283v21.03c0 1.986 1.489 3.091 3.092 3.091h9.733c1.662 0 2.736-.836 3.016-2.149 1.782 1.72 4.252 2.76 7.246 2.76 4.504 0 9.35-1.908 9.35-4.809 0-1.526-1.144-2.556-2.48-2.556-1.374 0-3.169 1.87-6.107 1.87-3.816 0-4.771-2.062-4.771-3.322h10.763c1.909 0 2.902-.495 2.902-2.594h-.001zm-13.664-1.487c0-1.336 1.527-3.59 3.855-3.59 2.328 0 3.854 2.254 3.854 3.59h-7.71zm26.85-8.626c-2.753 0-4.48.801-5.507 2.289-.412-.878-1.48-1.908-3.206-1.908-1.89 0-3.206 1.374-3.206 3.092v14.58c0 1.717 1.316 3.091 3.206 3.091 1.891 0 3.205-1.374 3.205-3.092v-9.426c0-2.061 1.316-3.588 3.536-3.588 2.22 0 3.535 1.527 3.535 3.588v9.428c0 1.717 1.316 3.091 3.206 3.091s3.205-1.374 3.205-3.092V13.512c0-4.885-3.535-7.022-7.974-7.022" fill="#505050"/><path d="M70.164 21.909h-7.09l9.194-10.954c.56-.687.86-1.184.86-1.718 0-.535-.172-1.03-.6-1.41-.646-.574-1.29-.727-2.538-.727H57.1c-2.149 0-3.524.84-3.524 2.748 0 1.908 1.375 2.75 3.524 2.75h5.887L54.393 23.09c-.988 1.222-1.03 1.757-1.03 2.214 0 .382.128 1.184.986 1.68.602.305.99.42 2.236.42h13.58c2.146 0 3.52-.84 3.52-2.75 0-1.907-1.374-2.747-3.52-2.747" fill="#505050"/><path d="M88.13 20.65c-1.413 0-3.26 1.87-6.287 1.87-3.928 0-4.91-2.062-4.91-3.322h11.08c1.966 0 2.987-.495 2.987-2.594 0-5.191-3.89-10.114-9.942-10.114-6.287 0-10.726 5.038-10.726 10.763 0 5.993 4.126 10.763 10.726 10.763 4.637 0 9.628-1.908 9.628-4.809 0-1.526-1.18-2.556-2.555-2.556zm-7.229-9.124c2.397 0 3.969 2.253 3.969 3.589h-7.938c0-1.336 1.572-3.59 3.969-3.59" fill="#505050"/></svg>