<svg width="88" height="23" fill="none" xmlns="http://www.w3.org/2000/svg"><g clip-path="url(#clip0_401_5018)" fill="#4A4A4A"><path d="M54.406 18.383l8.73-9.808H54.93V5.12h13.88v3.455l-8.637 9.746h9.16v3.547H54.407v-3.485zm-25.693-1.449c-.431.956-1.85 1.912-3.516 1.912-2.59 0-3.979-1.295-4.102-4.257h12.09c.37-5.15-2.436-9.931-8.142-9.931-5.09 0-8.544 3.824-8.544 8.852 0 5.182 3.27 8.821 8.544 8.821 3.701 0 6.415-1.573 7.742-5.366l-4.072-.031zM24.89 8.112c2.22 0 3.238 1.234 3.67 3.578h-7.495c.093-1.295.864-3.578 3.825-3.578zM83 16.934c-.432.956-1.851 1.912-3.517 1.912-2.59 0-3.979-1.295-4.102-4.257h12.09c.371-5.15-2.436-9.931-8.142-9.931-5.09 0-8.544 3.824-8.544 8.852 0 5.182 3.27 8.821 8.544 8.821 3.701 0 6.416-1.573 7.742-5.366l-4.072-.031zm-3.825-8.822c2.22 0 3.238 1.234 3.67 3.578H75.35c.093-1.295.833-3.578 3.825-3.578zM40.31 5.12v9.346c0 1.018.032 2.19.772 3.084.555.679 1.573 1.172 2.807 1.172 1.233 0 2.22-.493 2.806-1.172.74-.894.772-2.066.772-3.084V5.12h4.287v9.47c0 2.19-.278 4.04-1.974 5.613-1.666 1.542-3.917 2.128-5.984 2.128-1.881 0-4.133-.524-5.798-2.128-1.697-1.573-1.975-3.424-1.975-5.614V5.12h4.288zM5.056 17.581V0H.028v21.869h14.867V17.58h-9.84z"/></g><defs><clipPath id="clip0_401_5018"><path fill="#fff" transform="translate(.028)" d="M0 0h87.443v22.3H0z"/></clipPath></defs></svg>