<svg width="91" height="52" fill="none" xmlns="http://www.w3.org/2000/svg"><path fill="#fff" d="M0 0h90.639v52H0z"/><path d="M5.056 15.448v10.031h80.413V5.417H5.056v10.03zm4.89-6.954a1.783 1.783 0 011.124 2.063 1.79 1.79 0 01-1.005 1.235c-.258.12-.295.127-.763.127s-.505-.004-.771-.13c-.35-.165-.71-.518-.862-.838a1.79 1.79 0 011.74-2.564c.172.012.414.057.537.107zm4.751 6.974v7.057h-.574V8.412h.574v7.056zm1.108 0v7.057h-.575V8.412h.575v7.056zm1.1-.012l-.013 7.049-.275.012-.279.012V8.412h.575l-.009 7.044zm1.074.012v7.057h-.574V8.412h.574v7.056zm1.108 0v7.057h-.574V8.412h.574v7.056zm6.072-1.784v5.272l3.274.008 3.27.012v3.529l-6.04.012-6.043.008V8.412h5.539v5.272zm44.227-4.259c.013.012.03.706.041 1.543l.021 1.526.226.029c.123.012.525.024.886.028l.665.004.024.128c.012.07.025.57.025 1.107 0 .727-.013.985-.05 1.006-.028.02-.43.04-.894.049-.463.008-.853.028-.866.045-.016.012-.012.952.009 2.088l.032 2.064.107.18a.969.969 0 00.222.263c.172.123.677.189 1.091.135.18-.02.332-.037.336-.033.009.005.025.636.037 1.404l.03 1.395-.407.09c-1.469.324-2.991.25-3.939-.193-.463-.218-.845-.648-1.038-1.173-.2-.534-.209-.657-.238-3.541-.012-1.493-.037-2.72-.049-2.72-.012-.004-.312-.017-.66-.033l-.636-.025v-2.215l.64-.012.64-.009.028-.192c.013-.103.025-.698.025-1.322 0-.623.012-1.26.029-1.41l.024-.28 1.81.029a58.19 58.19 0 011.83.045zm9.1 2.864c1.974.381 3.48 1.71 4.009 3.528.16.558.225 1.046.225 1.703 0 .919-.147 1.661-.455 2.273a5.445 5.445 0 01-4.205 2.982c-.546.066-1.687.025-2.17-.078-1.662-.365-2.922-1.333-3.668-2.83-.382-.76-.538-1.473-.538-2.43 0-1.522.455-2.666 1.457-3.675.87-.874 1.973-1.37 3.405-1.535.46-.05 1.534-.016 1.94.062zm-39.6.04c.8.14 1.638.493 2.261.96 1.317.981 2.105 2.622 2.105 4.403 0 1.132-.234 1.953-.804 2.81-1.063 1.6-2.905 2.47-5.022 2.38-1.132-.05-1.887-.291-2.781-.89-1.174-.784-1.994-2.113-2.208-3.57-.135-.923-.02-2.067.283-2.872.485-1.284 1.514-2.322 2.84-2.855a7.037 7.037 0 011.476-.382c.485-.061 1.453-.049 1.85.017zm21.31-.003c1.33.18 2.08.496 2.729 1.148.394.398.529.636.636 1.12.192.89.217 1.322.233 4.156.009 1.477.033 2.786.054 2.91.061.328.205.55.435.656a.694.694 0 01.176.102c-.008.009-.898.025-1.973.037l-1.957.025-.099-.213a4.368 4.368 0 01-.188-.546l-.095-.332-.353.357c-.414.414-.775.64-1.3.816-.685.226-1.539.267-2.417.107-1.214-.218-2.13-1.018-2.388-2.093-.151-.623-.061-1.497.214-2.035.131-.262.52-.68.857-.919.64-.455 1.276-.673 2.934-1.005 1.87-.373 2.236-.517 2.342-.919.087-.316-.119-.71-.467-.898-.148-.078-.234-.09-.645-.09-.45 0-.484.003-.775.143-.221.103-.336.185-.422.303a1.46 1.46 0 00-.238.71v.136H54v-.136a4.623 4.623 0 01.394-1.706c.152-.32.234-.435.496-.698.21-.21.419-.365.608-.463.562-.292 1.477-.559 2.277-.67.533-.073 1.883-.073 2.42-.003zm-6.252.205c.037.094-3.139 9.838-3.233 9.92-.078.07-.246.074-2.248.074h-2.167l-.045-.115c-.102-.267-3.327-9.744-3.327-9.793 0-.078.566-.103 2.236-.103h1.485l.082.09c.095.107 1.12 3.369 1.617 5.133l.135.484.193-.73c.234-.882.5-1.81.98-3.418.197-.664.382-1.288.407-1.382l.049-.177.972-.012c2.79-.033 2.84-.033 2.864.029zM8.133 20.74v1.784h-.575v-3.569h.575v1.784zm1.1-.013l-.013 1.776-.275.013-.279.012v-3.573h.574l-.008 1.772zm1.074.012v1.79l-.275-.013-.279-.012-.012-1.777-.008-1.772h.574v1.784zm1.108 0v1.785h-.574v-3.569h.574v1.784zm1.108 0v1.785h-.575v-3.569h.575v1.784zm1.066 0v1.79l-.274-.013-.28-.012-.012-1.724c-.004-.947 0-1.747.013-1.772.012-.037.11-.053.287-.053h.266v1.784z" fill="#848484"/><path d="M8.916 8.765c-.283.073-.443.176-.66.41-.279.303-.349.5-.349.98 0 .366.013.44.115.657.238.508.702.8 1.28.8.583 0 1.01-.263 1.26-.771.127-.255.135-.304.135-.686 0-.365-.012-.435-.115-.644a1.464 1.464 0 00-.837-.73 1.332 1.332 0 00-.829-.016zm.907.439c.189.082.287.23.308.471.024.304-.135.53-.456.636-.02.008.062.173.19.365.36.554.352.525.139.525h-.185l-.275-.45c-.275-.448-.275-.452-.435-.452h-.156v.902h-.328V9.098l.525.02c.34.013.575.041.673.087z" fill="#848484"/><path d="M8.953 9.724v.287h.32c.398 0 .5-.057.5-.287 0-.23-.102-.287-.5-.287h-.32v.287zm67.79 5.146c-.373.123-.623.348-.829.754-.43.85-.484 2.117-.147 3.414.127.496.394.857.78 1.058.18.099.25.111.615.111.373 0 .43-.012.648-.119.127-.066.332-.222.451-.349.193-.205.234-.283.37-.68a4.79 4.79 0 00.262-1.847c-.029-.669-.11-1.03-.353-1.518-.3-.611-.652-.85-1.276-.87-.217-.008-.414.008-.52.045zm-39.406 0c-.373.123-.624.348-.829.754-.43.85-.484 2.117-.148 3.414.128.496.394.857.78 1.058.18.099.25.111.615.111.374 0 .431-.012.649-.119a2.03 2.03 0 00.45-.349c.194-.205.235-.283.37-.68a4.793 4.793 0 00.263-1.847c-.029-.669-.111-1.03-.353-1.518-.3-.611-.653-.85-1.276-.87-.218-.008-.414.008-.521.045zm22.531 3.104c-.221.177-.68.374-1.3.55a8.662 8.662 0 00-.968.337c-.271.127-.341.18-.427.328a.796.796 0 00.045.829c.324.467 1.26.553 2.018.18.579-.283.854-.84.907-1.83l.025-.48h-.099a.405.405 0 00-.2.086z" fill="#848484"/><path d="M72.259 27.407v.903h2.502v-1.805H72.26v.902zM41.036 31.14v4.39h2.544v-8.78h-2.544v4.39zm20.719-3.015v1.006h-.943v1.477h.894l.02 1.813c.02 2.023.037 2.199.292 2.568.34.497 1.239.665 2.99.554l.44-.024v-1.781l-.398-.029c-.222-.016-.46-.057-.525-.09-.247-.115-.247-.115-.259-1.625l-.012-1.382.607-.013.607-.012.012-.73.009-.726h-1.231l-.008-.997-.013-.993-1.239-.013-1.243-.008v1.005zm-26.298.865c-.874.169-1.522.505-2.064 1.08-.578.615-.853 1.357-.857 2.301 0 .977.258 1.674.861 2.306l.226.238-14.191.008-14.192.012v.78l15.693-.013c9.818-.008 15.812-.028 16.009-.053a4.064 4.064 0 001.346-.398c.541-.262.989-.701 1.227-1.198a2.28 2.28 0 00.168-.398c0-.04-.242-.053-1.194-.053h-1.194l-.18.201c-.218.242-.44.336-.78.34-.665.005-1.17-.422-1.264-1.066l-.024-.172h4.84v-.325a4.45 4.45 0 00-.06-.648c-.23-1.214-.883-2.113-1.888-2.597-.554-.27-.878-.336-1.682-.353a12.4 12.4 0 00-.8.009zm1.21 1.592c.168.07.443.316.554.497.045.074.099.217.119.324l.033.189h-2.326l.028-.177c.074-.484.365-.787.845-.89.214-.045.567-.016.747.057zm10.852-1.554c-1.358.27-2.326 1.145-2.671 2.42-.131.468-.131 1.416-.004 1.875.246.903.783 1.551 1.629 1.962.558.274.964.369 1.706.397 1.391.054 2.499-.316 3.172-1.058.2-.222.463-.677.537-.931l.025-.09h-1.23c-1.187 0-1.232.003-1.256.081-.037.123-.329.35-.517.407a1.69 1.69 0 01-.702.024c-.48-.107-.935-.648-.935-1.116v-.094h4.853l-.024-.402c-.07-1.091-.44-1.949-1.124-2.597-.48-.451-1.026-.726-1.748-.874-.382-.078-1.325-.082-1.711-.004zm1.39 1.575c.354.18.592.484.645.813l.029.176H47.26l.025-.185c.045-.303.189-.529.484-.75.234-.173.845-.201 1.14-.054zm6.897-1.612c-1.936.37-2.982 1.654-2.9 3.565.025.579.102.907.316 1.354.398.825 1.112 1.379 2.125 1.65.361.098.472.11 1.178.11.607.004.857-.012 1.128-.07 1.226-.262 2.039-.976 2.334-2.038.05-.169.086-.357.086-.419v-.115h-2.531l-.07.255c-.143.525-.611.8-1.149.689-.316-.066-.52-.23-.672-.534-.18-.36-.226-.636-.202-1.23.025-.579.09-.841.288-1.133.398-.595 1.32-.55 1.624.078.05.099.087.226.087.287v.111h1.292c1.485 0 1.346.054 1.21-.468-.213-.832-.788-1.472-1.64-1.813-.547-.221-.834-.27-1.642-.283a12.179 12.179 0 00-.861.004zm14.561.033c-.505.143-.923.517-1.194 1.066l-.156.329V29.13h-2.339l.009 3.187.012 3.192 1.264.013 1.26.008v-1.137c0-1.559.07-2.072.328-2.437a1.3 1.3 0 01.631-.426c.238-.07.698-.09.96-.046l.173.033v-2.552l-.378.005c-.209 0-.467.028-.57.053zm8.316.004c-1.498.312-2.47 1.297-2.696 2.733-.065.426-.024 1.25.087 1.628.307 1.092 1.132 1.859 2.322 2.167.312.082.546.11 1.005.127 1.662.061 2.856-.476 3.413-1.535.148-.283.316-.824.316-1.025v-.095h-2.527l-.078.255c-.156.529-.611.8-1.149.689-.59-.123-.882-.652-.882-1.625 0-1.153.443-1.772 1.207-1.682.406.045.73.337.787.702l.025.184h2.58l-.028-.197c-.136-.935-.767-1.71-1.699-2.084-.541-.221-.833-.27-1.64-.287-.547-.008-.838.004-1.043.045zm-6.424 3.302v3.2h2.502v-6.4H72.26v3.2zM5.384 44.926v2.256h3.692v-.656H5.958v-1.354H8.01v-.657H5.958v-1.148h2.954v-.698H5.384v2.257zm40.97-2.126c-.131.312-1.76 4.284-1.776 4.333-.017.04.049.05.3.04l.32-.011.188-.472.188-.472 1.194-.012 1.194-.009.197.493.197.492h.636l-.267-.648c-.147-.353-.566-1.37-.927-2.257l-.66-1.608h-.731l-.053.131zm.874 1.617c.234.574.414 1.054.406 1.067-.012.008-.41.012-.886.008l-.862-.012.435-1.059c.238-.578.443-1.054.456-1.054.012 0 .217.471.45 1.05zm-23.853-1.169a1.807 1.807 0 00-1.157.578 2.03 2.03 0 00-.546 1.412c-.004 1.362 1.067 2.273 2.384 2.026.471-.09.968-.434 1.206-.84.164-.275.27-.632.295-.998l.025-.336h-2.064v.698h.657c.36 0 .656.008.656.02 0 .07-.176.349-.295.468-.444.451-1.33.467-1.826.028-.324-.287-.488-.775-.419-1.263a1.18 1.18 0 01.35-.73c.27-.288.52-.39.98-.39.435 0 .644.078.935.344a.94.94 0 00.213.169c.046 0 .513-.3.513-.329 0-.061-.291-.36-.504-.516-.378-.28-.903-.407-1.403-.341zm35.185-.004c-.64.095-1.17.484-1.457 1.08-.34.693-.263 1.62.184 2.21.284.378.624.604 1.071.71.71.169 1.403-.02 1.88-.508.779-.8.75-2.244-.058-2.991a2.013 2.013 0 00-1.62-.5zm.91.792c.263.131.492.37.62.64.07.152.086.267.086.6 0 .364-.013.434-.115.643-.189.382-.513.612-.968.685-.5.083-1.026-.09-1.297-.426-.193-.234-.27-.447-.295-.8-.05-.673.27-1.194.861-1.403.316-.111.804-.087 1.108.061zm17.228-.788c-.73.095-1.39.698-1.588 1.453a2.713 2.713 0 000 1.12c.25 1.067 1.288 1.682 2.396 1.423.37-.09.628-.242.903-.537.39-.414.537-.808.537-1.432 0-.66-.172-1.095-.607-1.506-.455-.434-.993-.607-1.641-.52zm.759.718c.406.14.726.464.841.854.074.246.062.71-.025.96-.106.312-.414.636-.713.746-.3.115-.772.123-1.08.021-.307-.103-.652-.451-.754-.759a1.765 1.765 0 01-.004-1.013c.078-.238.369-.591.574-.698.349-.18.816-.225 1.161-.11zM9.65 45.274v1.908h.575v-1.584c0-.87.012-1.57.033-1.559.016.009.471.722 1.013 1.58l.985 1.563h.882v-3.815h-.575l-.008 1.587-.012 1.588-1.005-1.588-1.001-1.587H9.65v1.907zm4.309 0v1.908h3.2v-.656h-2.626v-.985h1.769l-.013-.34-.012-.337-.87-.012-.874-.008v-.821h2.503v-.656h-3.077v1.907zm3.774 0v1.908h.575v-1.395l.742.008.743.013.377.685.374.69h.68l-.102-.177c-.242-.419-.68-1.231-.68-1.26 0-.016.044-.045.102-.057.143-.037.381-.255.476-.44.106-.213.156-.619.115-.93-.062-.427-.259-.723-.579-.87-.164-.074-.279-.082-1.497-.082h-1.326v1.907zm2.565-1.185c.3.14.36.656.106.886l-.127.115h-1.969v-1.067h.927c.759 0 .952.012 1.063.066zm6.276.435l.841 1.16v1.498h.575v-1.497l.837-1.15.837-1.148-.312-.012a1.645 1.645 0 00-.357.008c-.025.008-.32.394-.657.857-.393.546-.627.833-.656.809-.02-.02-.308-.407-.636-.858l-.595-.824h-.714l.837 1.157zm5.855-1.088a221.71 221.71 0 00-1.568 3.717c0 .02.14.03.312.02l.312-.011.168-.402.164-.398 1.005.008 1.002.012.168.398.164.402h.64l-.177-.418-.804-1.912-.631-1.485h-.357c-.304 0-.37.012-.398.07zm.75 1.408c.173.418.325.783.337.808.016.04-.136.053-.681.053-.386 0-.702-.012-.702-.033-.004-.078.677-1.645.702-1.616.016.016.172.37.344.788zm1.991.43v1.908h.574V45.59c.004-1.428.008-1.58.066-1.505.033.045.488.759 1.013 1.587l.952 1.51h.883v-3.815h-.575l-.008 1.587-.013 1.592-1.005-1.592-1.005-1.587h-.882v1.907zm4.307 0v1.912l1.223-.012 1.219-.013.275-.135c.32-.156.471-.32.668-.726.185-.373.267-.706.267-1.067-.004-.796-.361-1.423-.985-1.719l-.266-.127-1.198-.012-1.203-.013v1.912zm2.483-1.108c.106.066.246.197.312.288.254.357.307 1.009.119 1.452-.111.25-.386.517-.6.574-.09.025-.516.046-.947.046h-.792v-2.507l.853.012.858.012.197.123zm7.372.624c.012 1.383.016 1.436.106 1.633.275.6.977.932 1.834.87.764-.057 1.31-.419 1.477-.985.05-.168.062-.484.062-1.575v-1.366h-.57l-.013 1.345-.012 1.35-.115.168a.85.85 0 01-.275.255c-.221.115-.697.168-1.034.123-.34-.05-.476-.103-.62-.238-.233-.222-.233-.222-.233-1.67v-1.333h-.624l.017 1.423zm3.89-1.095v.328h1.395v3.16h.574l.008-1.572.013-1.567.71-.013.705-.008v-.656h-3.405v.328zm8.246 1.579v1.908h.574v-3.175l.739 1.308c.41.718.746 1.313.75 1.317.005.009.341-.57.747-1.28l.739-1.292.012 1.559.008 1.563h.575v-3.82l-.44.013-.434.012-.587 1.046c-.324.575-.599 1.047-.615 1.047-.013 0-.288-.472-.612-1.047l-.582-1.046-.44-.012-.434-.013v1.912zm6.118-1.817c-.02.053-.382.902-.8 1.895-.419.99-.764 1.806-.764 1.814 0 .012.144.016.316.008l.32-.012.165-.402.164-.398 1.005.008 1.005.012.164.398.164.402h.32c.172 0 .316-.004.316-.012 0-.004-.361-.858-.8-1.896l-.796-1.887-.373-.012c-.353-.013-.374-.008-.406.082zm.742 1.341c.177.427.332.805.345.841.02.058-.05.066-.681.066-.657 0-.706-.004-.681-.074.094-.262.664-1.608.68-1.608.013 0 .165.349.337.775zm1.632-1.103v.328h1.438v3.16h.574v-3.16h1.436v-.656h-3.446v.328zm3.857 1.579v1.908h.575v-3.815h-.575v1.907zm5.786 0v1.908h.574l.008-1.588.012-1.583 1.001 1.583 1.006 1.588h.886v-3.815h-.574v1.583c0 .87-.013 1.572-.033 1.56-.017-.009-.472-.723-1.014-1.58l-.984-1.563h-.882v1.907z" fill="#000"/></svg>