<svg width="79" height="19" fill="none" xmlns="http://www.w3.org/2000/svg"><path d="M17.715.84V18h-3.237V7.015l.156-2.496-.585 2.834-3.367 9.425H7.484L4.13 7.353l-.572-2.834.143 2.496V18H.451V.84H4.95l3.926 12.233.208 1.17.208-1.17L13.231.84h4.484zm5.735 12.558c.026.485.156.918.39 1.3.234.381.572.68 1.014.897.45.216.988.325 1.612.325.563 0 1.057-.07 1.482-.208a4.261 4.261 0 001.092-.507c.303-.208.529-.408.676-.598l1.365 2.028a3.96 3.96 0 01-.975.845c-.399.251-.91.45-1.534.598-.616.156-1.387.234-2.314.234-1.17 0-2.197-.23-3.081-.69a4.97 4.97 0 01-2.067-1.988c-.494-.867-.741-1.898-.741-3.094 0-1.04.22-1.976.663-2.808a4.884 4.884 0 011.924-1.99c.85-.484 1.867-.727 3.055-.727 1.118 0 2.084.217 2.899.65a4.475 4.475 0 011.91 1.872c.451.823.677 1.829.677 3.016 0 .07-.005.212-.013.429 0 .208-.009.347-.026.416H23.45zm4.953-2.041c-.009-.277-.095-.576-.26-.897a2.08 2.08 0 00-.741-.82c-.338-.224-.789-.337-1.352-.337-.564 0-1.027.108-1.391.325a2.244 2.244 0 00-.806.806c-.182.312-.286.62-.312.923h4.862zM36.794 18h-3.301V7.327h3.301v1.729h-.064c.06-.208.225-.472.494-.793.277-.32.658-.607 1.144-.858.485-.26 1.07-.39 1.755-.39.494 0 .94.074 1.339.22.407.14.697.278.87.417l-1.3 2.704c-.112-.139-.324-.282-.636-.43-.304-.146-.685-.22-1.145-.22-.545 0-1 .152-1.364.455a2.758 2.758 0 00-.82 1.092c-.181.425-.273.823-.273 1.196v5.55zM47.872 7.015c.642 0 1.235.06 1.781.182a8.443 8.443 0 011.378.39c.382.147.633.273.754.377l-1.13 1.989c-.174-.139-.486-.303-.937-.494a3.705 3.705 0 00-1.482-.286c-.494 0-.91.087-1.248.26-.338.165-.507.416-.507.754s.182.607.546.806c.364.2.871.373 1.521.52a7.94 7.94 0 011.612.52 3.31 3.31 0 011.313.988c.347.424.52.992.52 1.703 0 .702-.151 1.287-.455 1.755-.294.46-.689.823-1.183 1.092a5.561 5.561 0 01-1.625.572 9.325 9.325 0 01-1.755.169c-.754 0-1.417-.074-1.989-.221-.572-.139-1.044-.3-1.417-.481-.364-.19-.624-.351-.78-.481l1.131-2.21c.226.2.594.42 1.105.663.52.234 1.08.35 1.677.35.624 0 1.114-.107 1.47-.324.363-.217.545-.507.545-.871a.855.855 0 00-.26-.65c-.173-.173-.411-.316-.715-.43a7.681 7.681 0 00-1.066-.298 7.704 7.704 0 01-1.144-.338 4.824 4.824 0 01-1.092-.611 2.934 2.934 0 01-.819-.936c-.208-.382-.312-.837-.312-1.365 0-.676.217-1.24.65-1.69.434-.46.997-.806 1.69-1.04a6.682 6.682 0 012.223-.364zm8.89 6.383c.026.485.156.918.39 1.3.234.381.572.68 1.014.897.451.216.988.325 1.612.325.564 0 1.058-.07 1.482-.208a4.261 4.261 0 001.092-.507c.304-.208.529-.408.676-.598l1.365 2.028a3.96 3.96 0 01-.975.845c-.398.251-.91.45-1.534.598-.615.156-1.386.234-2.314.234-1.17 0-2.197-.23-3.08-.69a4.97 4.97 0 01-2.068-1.988c-.494-.867-.74-1.898-.74-3.094 0-1.04.22-1.976.662-2.808a4.884 4.884 0 011.924-1.99c.85-.484 1.868-.727 3.055-.727 1.118 0 2.085.217 2.9.65a4.475 4.475 0 011.91 1.872c.451.823.676 1.829.676 3.016 0 .07-.004.212-.013.429 0 .208-.008.347-.026.416h-8.008zm4.953-2.041c-.008-.277-.095-.576-.26-.897a2.08 2.08 0 00-.74-.82c-.339-.224-.79-.337-1.353-.337s-1.027.108-1.39.325a2.244 2.244 0 00-.807.806c-.182.312-.286.62-.312.923h4.862zm12.123-4.342a5.27 5.27 0 012.132.455 3.852 3.852 0 011.703 1.417c.45.65.676 1.5.676 2.548V18h-3.315v-5.993c0-.875-.208-1.525-.624-1.95-.407-.425-.945-.637-1.612-.637-.433 0-.85.121-1.248.364a2.77 2.77 0 00-.962.988c-.243.416-.364.893-.364 1.43V18h-3.302V7.327h3.302V9.03c.095-.295.312-.598.65-.91.338-.312.767-.572 1.287-.78a4.316 4.316 0 011.677-.325z" fill="#000"/></svg>