<svg width="71" height="54" fill="none" xmlns="http://www.w3.org/2000/svg"><path d="M32.733 0C20.785 0 10.676 7.868 7.29 18.7h2.16C12.762 9.01 21.928 2.05 32.732 2.05c10.805 0 19.971 6.961 23.283 16.65h2.159C54.798 7.867 44.68 0 32.733 0zm23.282 34.6c-3.312 9.687-12.478 16.649-23.282 16.649-10.805 0-19.971-6.962-23.283-16.65H7.291c3.385 10.84 13.494 18.7 25.442 18.7 11.947 0 22.065-7.86 25.44-18.7h-2.158z" fill="#4D4D4D"/><path d="M35.578 16.256h3.97v15.662h-3.97V16.256z" fill="#4D4D4D"/><path d="M27.829 22.898c1.454-.082 2.378 1.491 2.378 3.568 0 2.68-.924 3.842-2.433 3.842-1.428 0-2.425-1.162-2.425-3.842 0-1.592.568-3.568 2.48-3.568zm-6.304 3.879c0 3.833 2.772 5.8 6.359 5.8 3.586 0 6.367-1.921 6.367-6.029 0-3.494-2.434-5.818-6.386-5.818-3.778 0-6.34 2.159-6.34 6.047z" fill="#4D4D4D" stroke="#EE2C30" stroke-width=".228"/><path d="M47.535 29.778c-1.134 0-2.122-.878-2.122-2.196h8.16c.064-4.043-2.342-6.916-6.33-6.916-3.45 0-6.094 2.36-6.094 6.01 0 3.779 2.663 5.828 6.111 5.828 2.507 0 5.224-.915 5.965-3.696h-4.09c-.31.65-.923.97-1.6.97zm1.766-4.474h-3.889c-.009-2.89 3.925-2.927 3.889 0zm18.707-6.998v-.65h.677c.32 0 .375.192.375.32 0 .238-.137.33-.412.33h-.64zm-.53 1.381h.53v-.97h.558c.403 0 .43.138.43.467 0 .256.019.384.055.503h.595v-.073c-.11-.037-.11-.128-.11-.485 0-.457-.119-.53-.33-.622.257-.083.394-.311.394-.586 0-.21-.119-.695-.814-.695h-1.308v2.461z" fill="#4D4D4D"/><path d="M66.042 18.489a2.475 2.475 0 012.48-2.48A2.475 2.475 0 0171 18.49a2.475 2.475 0 01-2.479 2.48 2.475 2.475 0 01-2.479-2.48zm2.48 2.15a2.155 2.155 0 000-4.309 2.155 2.155 0 000 4.309zm-10 .347c.54.851 1.07 1.848 1.656 2.653l1.875-2.653h3.778c-1.097 1.73-2.506 3.33-3.558 5.06 0 0 2.552 4.116 3.622 5.873h-4.244c-.824-1.336-1.656-2.946-2.013-3.459l-2.15 3.459h-3.851c1.363-2.04 3.924-5.855 3.924-5.855l-3.449-5.078h4.41zM11.81 31.928v-6.88a1.94 1.94 0 013.88 0v6.88l3.805-.01v-8.196c-.055-.769-.814-1.912-1.729-2.415-1.226-.586-3.97-1.263-6.24 1.235-.731-.778-1.646-1.373-2.643-1.647-1.683-.357-3.449.01-4.684 1.29-.165.137-.302.476-.293.192v-1.39H0v10.932h3.906v-6.88c0-1.07.879-1.94 1.949-1.94s1.94.87 1.94 1.94v6.889h4.015z" fill="#4D4D4D"/></svg>