<svg width="97" height="31" fill="none" xmlns="http://www.w3.org/2000/svg"><path d="M20.425 13.403l-.483 1.34-1.18 3.498-.776 2.21a.282.282 0 01-.295.229h-2.949a.375.375 0 01-.268-.201c-.388-1.073-.75-2.158-1.126-3.244a490.02 490.02 0 01-1.18-3.444l-.106-.107v6.58c0 .402 0 .416-.402.416H8.04c-.268 0-.375 0-.362-.362V9.958c0-.389 0-.402.389-.402h6.045a.456.456 0 01.522.361c.348 1.046.71 2.078 1.072 3.11l.456 1.34h.08c.148-.402.309-.804.456-1.22.388-1.111.764-2.237 1.166-3.35a.481.481 0 01.335-.215h6.54c.188 0 .269.08.255.27v10.453c0 .401 0 .401-.402.401h-3.62c-.295 0-.388-.08-.388-.388V13.43l-.161-.026zm55.177 7.25h-4.396a.507.507 0 01-.51-.294c-.723-1.342-1.473-2.547-2.21-3.82a.495.495 0 00-.496-.282h-1.689c-.282 0-.375.107-.375.375v3.592c0 .416 0 .43-.402.43h-3.645c-.256 0-.35 0-.35-.336V9.904c0-.28.081-.374.363-.374H71.97a3.39 3.39 0 012.829 1.245c.456.596.697 1.328.683 2.078a3.176 3.176 0 01-1.421 2.84 4.17 4.17 0 01-.818.39c-.268.094-.308.147-.147.402l2.358 3.873c.058.095.107.193.148.295zm-7.398-8.43h-1.917c-.254 0-.374.066-.361.348.013.255.013.51 0 .764 0 .255.093.349.348.335h3.74c.185.002.369-.04.535-.12a.63.63 0 00.134-1.127 1.255 1.255 0 00-.63-.187l-1.85-.013zm-16.699 8.886c-1.01.04-2.021-.064-3.003-.308a5.362 5.362 0 01-3.511-2.28 5.361 5.361 0 01-.764-2.438A7.733 7.733 0 0144.483 13a4.665 4.665 0 012.88-3.123 12.438 12.438 0 015.643-.644c1 .061 1.985.274 2.921.63a4.77 4.77 0 012.868 2.989 7.773 7.773 0 01.175 3.578 4.824 4.824 0 01-3.391 4.115c-1.313.43-2.693.62-4.074.562v.001zm.388-2.962a2.68 2.68 0 001.569-.523 2.92 2.92 0 001.112-2.68A3.043 3.043 0 0053.918 13a2.574 2.574 0 00-1.53-.87 3.579 3.579 0 00-2.05.16 2.425 2.425 0 00-1.5 1.756 3.619 3.619 0 00.295 2.814 2.855 2.855 0 002.76 1.287zm-17.45 2.962c-1.014.04-2.03-.063-3.015-.308a5.362 5.362 0 01-3.525-2.293 5.24 5.24 0 01-.777-2.345 8.323 8.323 0 01.228-3.15 4.705 4.705 0 012.68-3.068 8.61 8.61 0 012.68-.71 14.75 14.75 0 014.022 0 6.701 6.701 0 013.738 1.54 4.744 4.744 0 011.408 2.52c.212.95.257 1.93.135 2.895a4.864 4.864 0 01-3.392 4.316 11.314 11.314 0 01-4.182.602v.001zm.282-2.962a2.681 2.681 0 002.211-1.06 3 3 0 00.59-1.795 2.948 2.948 0 00-1.072-2.68 3.243 3.243 0 00-2.68-.483c-.56.104-1.07.392-1.448.818a3.699 3.699 0 00-.268 3.9 2.869 2.869 0 002.667 1.3zm48.758 2.534h-5.951c-.375 0-.375 0-.375-.404V10.011c0-.455 0-.455.429-.455H88.91c.43 0 .43 0 .43.429v2.077c0 .376 0 .376-.376.376h-6.942c-.47 0-.483 0-.483.469 0 .898-.106.763.765.763h5.534c.269 0 .363.067.363.348v2.145c0 .256-.08.335-.335.335h-5.898c-.415 0-.429 0-.429.402v.83a.2.2 0 00.135.22c.03.01.061.013.092.009h7.694c.402 0 .402 0 .402.402v1.916c0 .39 0 .403-.401.403h-5.978z" fill="#000"/><path d="M17.999.174h16.565l-8.282 8.498L17.999.174z" fill="#009FE3"/><path d="M96.31 7.425a378.737 378.737 0 00-47.62-3.337c-6.231 0-12.45.214-18.24.535L34.953 0H17.596l5.013 5.146C9.757 6.125.443 7.411.295 7.425L0 7.519v15.358h.281c.148 0 9.838 1.421 23.293 2.4L18 31h16.566l-5.2-5.362c5.816.335 12.128.563 18.535.563a399.461 399.461 0 0048.41-3.351l.28-.094V7.478l-.28-.054zM95.92 22.3a401.073 401.073 0 01-48.02 3.297c-6.702 0-13.215-.254-19.233-.616l-2.385-2.44-2.158 2.145C11.74 23.802 2.4 22.542.67 22.301V8.041c1.703-.227 10.722-1.34 22.556-2.278L26.282 8.9l3.471-3.538c5.99-.349 12.45-.577 18.938-.577 15.796.09 31.57 1.177 47.228 3.257v14.26h.001z" fill="#000"/><path d="M18.4.335l7.88 8.095L34.162.335h-15.76z" fill="#777"/></svg>