<svg width="129" height="19" fill="none" xmlns="http://www.w3.org/2000/svg"><g clip-path="url(#clip0_401_4965)" fill-rule="evenodd" clip-rule="evenodd" fill="#5E5E5E"><path d="M125.522 2.26V1.231h.649c.445 0 .648.165.648.534 0 .329-.243.493-.77.493h-.527zm1.662 1.314l-.73-1.11c.405-.082.608-.328.608-.698 0-.493-.324-.74-.891-.74h-.892v2.67h.243v-1.19h.689l.73 1.15v.04h.283l-.04-.122zM84.681 9.407a.194.194 0 010-.329l9.481-7.887c.122-.082.081-.164-.04-.164h-6.929a.984.984 0 00-.486.164l-5.672 4.806a.364.364 0 01-.406 0l-5.632-4.806a.983.983 0 00-.486-.164h-6.928c-.162 0-.162.082-.04.164l9.48 7.887a.194.194 0 010 .329l-9.967 8.42c-.121.082-.203.165-.203.206h6.807a.984.984 0 00.487-.165l6.523-5.463a.364.364 0 01.405 0l6.564 5.464a.985.985 0 00.486.164h6.807l-.203-.206-10.048-8.42z"/><path d="M126.981 18.033c.162 0 .203-.082.081-.206L114.097 1.232c-.082-.123-.284-.205-.446-.205h-5.348a.645.645 0 00-.446.205L94.932 17.827c-.081.124-.04.206.08.206h6.078a.497.497 0 00.406-.206l9.278-12.364a.188.188 0 01.324 0l9.238 12.364c.081.124.284.206.405.206h6.24zM62.64 9.366c0 3.738-4.66 6.243-10.454 6.243-5.753 0-10.413-2.546-10.413-6.243 0-3.697 4.66-6.244 10.413-6.244 5.794 0 10.453 2.547 10.453 6.244zm5.388 0C68.028 4.19 60.938 0 52.227 0c-8.712 0-15.802 4.19-15.802 9.366 0 5.175 7.09 9.406 15.802 9.406 8.71 0 15.801-4.23 15.801-9.406zm58.062-4.97c-1.094 0-2.026-.904-2.026-2.054 0-1.11.891-2.054 2.026-2.054 1.094 0 2.026.904 2.026 2.054 0 1.109-.892 2.054-2.026 2.054zm0-4.313c-1.256 0-2.229 1.026-2.229 2.259A2.238 2.238 0 00126.09 4.6a2.272 2.272 0 002.269-2.26A2.272 2.272 0 00126.09.084zm-100.2.944a.496.496 0 00-.405.205l-8.751 12.652c-.081.123-.203.123-.325 0L7.618 1.274c-.08-.124-.283-.206-.405-.206H.243C.122 1.027 0 1.15 0 1.314v16.472a.28.28 0 00.284.288h5.713a.279.279 0 00.283-.288V6.778c0-.165.081-.165.162-.041l7.901 11.09c.081.124.284.206.405.206h3.687a.497.497 0 00.406-.206l7.9-11.132c.082-.123.163-.082.163.042v11.008c0 .165.121.288.283.288h5.673a.279.279 0 00.283-.288V1.315a.279.279 0 00-.283-.288h-6.97z"/></g><defs><clipPath id="clip0_401_4965"><path fill="#fff" d="M0 0h128.44v19H0z"/></clipPath></defs></svg>