<svg width="127" height="20" fill="none" xmlns="http://www.w3.org/2000/svg"><path d="M0 19.566V.127h8.152c2.75.03 5.403.174 7.244 2.647.515.697 1.228 1.979 1.228 4.13 0 2.705-1.179 4.334-1.988 5.092-1.45 1.451-3.39 1.6-5.306 1.688H5.771v5.88H0v.002zM7.98 9.175c.958-.025 2.039-.075 2.726-.776a1.82 1.82 0 00.516-1.296 2.083 2.083 0 00-.491-1.295c-.836-.906-2.186-.802-3.291-.802H5.844v4.169H7.98zm18 10.412l-.222-1.294C25.021 18.87 23.671 20 21.24 20c-.418 0-2.234-.057-3.486-1.1-.541-.469-1.474-1.598-1.474-3.467 0-.442.122-1.194.835-2.13 1.007-1.348 2.21-1.714 3.756-2.075l2.604-.324a8.01 8.01 0 01.957-.218c.074-.029.491-.086.712-.25.221-.165.393-.798.393-1.103 0-.55-.712-1-1.817-1-.982 0-1.448.357-1.694.715-.123.192-.172.357-.196.799l-4.936-.03c.221-1.127.443-2.036 1.252-2.971 1.007-1.13 2.603-1.844 5.721-1.844.59 0 2.996-.248 4.764.936.712.467 1.178 1.02 1.498 1.762.54 1.157.393 2.557.393 3.77v3.879c-.025 2.421.147 2.86.589 4.238h-5.132zm-.517-6.241c-.712.248-1.449.468-2.185.716l-.54.165c-.27.054-1.105.236-1.105 1.282 0 .47.27 1.32 1.35 1.32.148 0 .81-.063 1.154-.173.983-.276 1.056-.914 1.326-1.192v-2.118zm15.372 6.256v-6.885c0 .82.221-2.689-.516-3.035-.245-.12-.712-.36-1.276-.347-.639.013-1.351.322-1.596.89-.27.692-.37 1.328-.344 2.77v6.612h-5.306V5.355h5.01l.073 1.654c.688-.84 1.498-1.93 4.445-1.93 2.161 0 3.806.755 4.47 2.943.147.552.22 1.088.27 2.222v9.358h-5.23zM70.3 9.473c-.097-.543-.49-1.44-1.841-1.44-.589 0-1.031.158-1.252.296-.123.051-.32.407-.32.815 0 .109.1.432.418.624.197.11.663.245 1.203.307l2.087.543c1.474.372 2.75.635 3.781 1.667.394.383.69.857.861 1.38.245.737.122 1.313.122 1.559 0 1.679-.81 2.69-1.276 3.126-1.007.923-2.604 1.62-5.525 1.62-2.432 0-3.954-.638-4.863-1.166-1.94-1.125-2.038-3.194-2.16-3.845l5.058-.017c.05.488.122.854.516 1.205.319.3.662.506 1.57.506 1.082 0 1.696-.52 1.72-.994.025-.057.025-.438-.123-.627-.245-.407-.908-.58-1.866-.825 0 0-2.947-.633-3.167-.739-.664-.304-3.34-.906-3.34-3.892 0-1.68.859-2.576 1.35-3.037.91-.789 2.406-1.52 5.083-1.52.59 0 3.094-.027 4.96 1.25.516.35.933.785 1.253 1.301.442.732.515 1.606.564 1.903h-4.812zm18.245 8.5c-.86.87-2.627 2.015-5.549 2.015-.933 0-3.511-.055-5.402-2.29-.785-.952-1.744-2.533-1.744-5.37 0-.49 0-1.607.467-2.833 1.056-3.106 3.929-4.523 6.949-4.496.81 0 3.34.081 5.156 1.935.91.926 2.063 2.615 2.039 5.614 0 .733-.05 3.515-1.916 5.423v.001zm-3.93-8.606c-.465-.437-1.177-.525-1.423-.525-.614 0-1.056.356-1.203.464-.639.518-1.105 1.307-1.105 3.077 0 1.39.32 3.715 2.283 3.715.565 0 1.105-.147 1.449-.555.467-.518.958-1.454.933-3.089 0-.08.025-2.107-.933-3.087zm21.929-4.059h5.205v14.319h-5.205V5.307zm0-5.308h5.205v3.724h-5.205V0zm15.224 10.784c-.393-1.718-1.228-1.805-2.161-1.805-.761 0-1.006.259-1.253.472-.662.564-.883 1.265-.883 3.01 0 .133-.074 2.465 1.203 3.352.368.243.54.258.982.258.148 0 .59.015.982-.172.516-.24 1.056-.683 1.154-1.893l5.035-.042c-.051.324-.246 1.466-.737 2.406-1.253 2.498-3.807 3.539-6.385 3.539-1.056 0-1.792-.16-2.234-.24-2.038-.511-3.831-1.936-4.617-3.976-.22-.616-.515-1.557-.515-3.116 0-.643.025-2.308.933-3.973.123-.268.54-.94 1.13-1.557 1.914-1.88 4.763-1.935 5.451-1.935 2.652 0 4.297.994 5.107 1.746.246.243.737.892 1.13 1.778.319.724.491 1.37.614 2.148h-4.936zm-60.724 4.641v-3.872c0-1.21 0-2.838-.516-3.993-.344-.744-.59-1.156-1.302-1.622-1.767-1.184-4.37-.961-4.96-.961-3.118 0-4.714.823-5.72 1.952-.811.936-.983 1.852-1.204 2.981h4.935c.025-.442.099-.606.197-.8.27-.356.663-.806 1.645-.806 1.105 0 1.817.563 1.817 1.112 0 .303-.025.797-.245.961-.222.167-.786.363-.884.39-.246.042-.565.116-.958.218l-2.579.327c-1.546.36-2.75.674-3.756 2.022-.737.935-.737 1.79-.737 2.229 0 1.871.81 2.952 1.35 3.42 1.253 1.045 3.046 1.005 3.487 1.005 2.432 0 3.708-1.068 4.47-1.646l.22 1.35h5.328c-.294-.935-.613-1.423-.588-4.267zm-6.508 1.314c-.343.11-.932.086-1.08.079-.884-.059-1.35-.865-1.35-1.334 0-1.046.834-1.215 1.104-1.27l.565-.157c.713-.248 1.449-.457 2.161-.704l.025 1.82c-.221.41-.468 1.29-1.425 1.566zm45.722 2.836v-6.93c0 .82.245-2.644-.491-2.993-.246-.115-.713-.356-1.253-.343-.638.012-1.375.321-1.596.889-.294.692-.442 1.163-.418 2.602l-.048 6.802-5.182-.022V5.329h4.986l.073 1.654c.688-.842 1.498-1.93 4.47-1.93 2.135 0 3.78.909 4.443 3.097.148.552.173.913.246 2.047v9.383l-5.23-.005" fill="#434343"/></svg>