<?xml version="1.0" encoding="utf-8"?>
<!-- Generator: Adobe Illustrator 24.0.2, SVG Export Plug-In . SVG Version: 6.00 Build 0)  -->
<svg xmlns="http://www.w3.org/2000/svg" xmlns:xlink="http://www.w3.org/1999/xlink" version="1.1" id="Layer_1" x="0px" y="0px" viewBox="0 0 833.9 250" style="enable-background:new 0 0 833.9 250;" xml:space="preserve" width="833.9" height="250">
<style type="text/css">
	.st0{fill:#231F20;}
	.st1{fill:#8DC63F;}
	.st2{fill:#00AAAD;}
</style>
<g>
	<path id="PxC_Logo_right_2_" class="st0" d="M464,125.7v13.5h-12.7l0.1,37.4l-18.4,0v-37.4l-16.6,0c-7.6,0-11,5.8-11,12.1   c0,7,5.9,12.1,12.9,12.5c4,0.2,6.6-0.7,9.6-3.3v13.8c-4.6,2.5-7.8,3.4-13,3.4c-14.9,0.1-27.8-11.4-27.7-26.4   c0.1-14.6,8.5-25.6,27.8-25.6C431,125.8,464,125.7,464,125.7L464,125.7z M292.6,125.8l-18.8,0l0,22l-22-21.9h-14.6v50.9h18.5   l0-21.6l21.5,21.6h15.5V125.8L292.6,125.8z M173.7,127.3c-4.8-2.2-9.1-2.6-15-2.6c-14.5,0-27.3,11.8-27.2,26.7   c0.1,15.2,11.7,26.4,28.8,26.4c6,0,8.8-0.5,13.8-2.9v-14.8c-2.9,1.9-6.4,3.4-11.1,3.4c-6.7,0-12.3-5.4-12.3-12.1   c0-6.9,5.5-12.5,12.5-12.5c4.2,0,7.8,1.3,10.6,3.5C173.7,142.4,173.7,127.1,173.7,127.3L173.7,127.3z M338.7,125.8H295v13.5l12.9,0   v37.4h18.3v-37.4l12.5,0V125.8L338.7,125.8z M434.2,105.8l8.7,13.7h21.4c0,0-12.5-17.3-19.1-26l19-24.8h-21l-8.9,12.1h0.1   l-8.8-12.1h-21.1l19,24.8c-6.6,8.8-19.1,26-19.1,26h21.4l8.7-13.7H434.2L434.2,105.8z M382.2,68.6v50.9H402V68.6H382.2L382.2,68.6z    M202.2,68.6h-18.4v50.9h18.4v-18.5h15.9v18.5h18.4V68.6h-18.4V86l-15.9,0L202.2,68.6L202.2,68.6z M375.9,68.6h-18.5l0,21.6   l-22.7-21.6h-14.7l0,50.9h18.4V97.9l21.9,21.5h15.5V68.6L375.9,68.6z M77,144.4l-0.1-9.3c0-5,3.9-7.1,3.9-7.1   c3.9-2.5,7.5-7.2,7.5-13.1c0-4.9-2-8.3-5.3-11.4c-2.5-2.4-6-3.3-6-7v-9.9c0-3.1,0-5.9,5.5-5.9c18.2,0,33.3,16.8,33.3,33.8   c0,17.2-14.1,34.3-33.4,34.3C76.7,148.9,77,144.4,77,144.4L77,144.4z M69.1,135.1l0,23.9c0,3.1-2.6,5.6-5.6,5.6H39.1   c-3.1,0-6-2.6-6-5.7l0-72.5c0-3.1,2.5-5.6,5.6-5.6h24.8c5.6,0,5.6,2.8,5.6,5.9l0,9.9c0,3.8-3.3,4.5-6,6.9   c-3.6,3.3-5.3,6.5-5.4,11.4c-0.1,5.9,3.8,10.5,7.4,13.1C65.2,128,69.1,130.2,69.1,135.1L69.1,135.1z M73.1,122.3   c-4.1,0-7.4-3.3-7.4-7.4s3.3-7.4,7.4-7.4c4.1,0,7.4,3.3,7.4,7.4S77.1,122.3,73.1,122.3L73.1,122.3z M28.4,68.6   c-4.2,0-7.6,3.4-7.6,7.6v93c0,4.2,3.4,7.6,7.6,7.6h92c4.2,0,7.6-3.4,7.6-7.6v-93c0-4.2-3.4-7.6-7.6-7.6H28.4L28.4,68.6z    M152.9,80.8h2.9c4,0,6.5,2.4,6.6,5.8c0,3.4-2.6,5.9-6.6,5.9h-2.9V80.8L152.9,80.8z M159.8,68.6h-25.4l0,50.9h18.5v-14.7h6.9   c10.5,0,21.2-7.4,21.1-18.2C180.8,75.7,173.6,68.6,159.8,68.6L159.8,68.6z M268.3,83.3c5.5,0,8.8,5.5,8.7,10.9   c-0.1,5.4-3.3,10.7-8.7,10.7c-5.3,0-8.6-5.3-8.6-10.7C259.6,88.8,262.8,83.4,268.3,83.3L268.3,83.3z M314.6,68.6h-46.3   c-9,0-14.3,1.7-19.6,6.6c-5.1,4.8-7.1,11.1-7.1,19c0,7.4,3.3,14.3,7.1,18c4.3,4.1,10.5,7.3,19.6,7.3h46.3l0-12.4h-20.8v-7.1h20.6   V87.8h-20.6v-7h20.8V68.6L314.6,68.6z M356.1,155.7l4-12.7l4,12.7H356.1L356.1,155.7z M369.9,125.7h-19.7l-21,50.9h19.1l3.6-9.2   h16.4l3.6,9.2l18.8,0L369.9,125.7L369.9,125.7z M204.8,140.2c5.6,0,8.9,5.7,8.8,11.3c-0.1,5.5-3.3,11-8.8,11c-5.5,0-8.7-5.5-8.8-11   C196,145.9,199.2,140.2,204.8,140.2L204.8,140.2z M232.3,151.4c0.1-15-10.7-26.7-27.7-26.6c-16.4,0-27.3,11.8-27.3,26.6   c0.1,14.8,10.8,26.4,27.3,26.4C221.6,177.7,232.2,166.3,232.3,151.4L232.3,151.4z M30.1,199.1h-5.8l-3.8,27.2h5.8L30.1,199.1   L30.1,199.1z M63.8,199.1H58l-2.4,17.8h-0.1l-11-17.8h-5.8l-3.8,27.2h5.8l2.6-18.4h0.1l11.2,18.4H60L63.8,199.1L63.8,199.1z    M86.6,200.8c-2.3-1.4-5.2-2.2-7.8-2.2c-5.5,0-9.6,3.5-9.6,8.2c0,7.2,10,7.7,10,12.2c0,1.8-1.5,3-3.9,3c-2.3,0-5.5-1.2-7.7-2.8   l-0.9,4.7c2.4,1.6,5.3,2.6,9.3,2.6c6.1,0,9.2-4,9.2-8.3c0-7.6-10-8.2-10-12.1c0-1.8,1.7-3,3.8-3c2.1,0,5,1.1,6.7,2.4L86.6,200.8   L86.6,200.8z M94.7,199.1h8.9c4.9,0,9,2.7,9,8.1c0,6.8-5.2,8.9-9.9,8.9h-4.6l-1.4,10.3h-5.8L94.7,199.1L94.7,199.1z M99.9,203.4   l-1.1,8.4h2.4c3.8,0,5.4-2,5.4-4.4c0-2.3-1.6-4-5.3-4H99.9L99.9,203.4z M125.8,199.1H120l-3.8,27.2h5.8L125.8,199.1L125.8,199.1z    M134.3,199.1h9.3c6.9,0,9.2,4.8,9.2,8.2c0,3.3-1.9,6.3-6.1,7.1v0.1c1.5,0.6,2.1,1.7,2.9,3.2l4.2,8.7h-6.4l-2.6-5.5   c-2.3-4.9-2.9-5.5-5.8-5.5h-1.2l-1.5,11h-5.8L134.3,199.1L134.3,199.1z M139.5,203.6l-1,7.4h2.9c3.9,0,5.5-2,5.5-4   c0-2.2-1.7-3.5-4.5-3.5H139.5L139.5,203.6z M168,199.1h-5.8l-3.8,27.2h5.8L168,199.1L168,199.1z M201.6,199.1h-5.8l-2.4,17.8h-0.1   l-11-17.8h-5.8l-3.8,27.2h5.8l2.6-18.4h0.1l11.2,18.4h5.5L201.6,199.1L201.6,199.1z M233.6,199.7c-2.1-0.6-4.9-1-7.9-1   c-14.3,0-19.6,8.8-19.6,15.7c0,5.9,4,12.3,15.3,12.3c2.9,0,6.9-0.4,8.5-0.8l2-13.9h-10.8l-0.6,4.3h5l-0.7,4.8   c-1.6,0.4-2.6,0.5-4.1,0.5c-4.9,0-8.7-2.4-8.7-7.5c0-6.2,5.6-10.4,13.6-10.4c2.5,0,4.5,0.3,7.2,1L233.6,199.7L233.6,199.7z    M260.2,199.1h-5.8l-3.8,27.2h5.8L260.2,199.1L260.2,199.1z M293.9,199.1h-5.8l-2.4,17.8h-0.1l-11-17.8h-5.8l-3.8,27.2h5.8   l2.5-18.4h0.1l11.2,18.4h5.5L293.9,199.1L293.9,199.1z M327.4,199.1h-5.8l-2.4,17.8h-0.1l-11-17.8h-5.8l-3.8,27.2h5.8l2.5-18.4h0.1   l11.2,18.4h5.5L327.4,199.1L327.4,199.1z M360.6,211.1c0,9.4-6.7,15.6-15.7,15.6c-7.9,0-13.7-5.2-13.7-12.7c0-8.8,6.8-15.3,16-15.3   C355.1,198.7,360.6,203.8,360.6,211.1L360.6,211.1z M354.6,211.5c0-4.5-3.3-7.8-7.8-7.8c-5.3,0-9.6,4.5-9.6,10   c0,4.7,3.2,7.9,7.8,7.9C350.3,221.6,354.6,217.2,354.6,211.5L354.6,211.5z M385.5,199.1h-5.9l-7.3,16h-0.1l-3-16h-5.5l5.7,27.6h2.8   L385.5,199.1L385.5,199.1z M403.3,198.7l4.8,27.6h-5.9l-0.8-6h-8.5l-2.6,6h-6.4l13.3-27.6H403.3L403.3,198.7z M399.3,204.4   l-4.8,12.1h6.3L399.3,204.4L399.3,204.4L399.3,204.4z M435.2,199.1h-23.3l-0.6,4.6h8.6l-3.2,22.7h5.8l3.2-22.7h8.8L435.2,199.1   L435.2,199.1z M446.7,199.1h-5.8l-3.8,27.2h5.8L446.7,199.1L446.7,199.1z M480.8,211.1c0,9.4-6.7,15.6-15.7,15.6   c-7.9,0-13.7-5.2-13.7-12.7c0-8.8,6.8-15.3,16-15.3C475.3,198.7,480.8,203.8,480.8,211.1L480.8,211.1z M474.8,211.5   c0-4.5-3.3-7.8-7.8-7.8c-5.3,0-9.6,4.5-9.6,10c0,4.7,3.2,7.9,7.8,7.9C470.5,221.6,474.8,217.2,474.8,211.5L474.8,211.5z    M514.4,199.1h-5.8l-2.4,17.8h-0.1l-11-17.8h-5.8l-3.8,27.2h5.8l2.5-18.4h0.1l11.2,18.4h5.5L514.4,199.1L514.4,199.1z M537.3,200.8   c-2.3-1.4-5.1-2.2-7.8-2.2c-5.5,0-9.6,3.5-9.6,8.2c0,7.2,10,7.7,10,12.2c0,1.8-1.5,3-3.9,3c-2.3,0-5.5-1.2-7.7-2.8l-0.9,4.7   c2.4,1.6,5.3,2.6,9.3,2.6c6.1,0,9.2-4,9.2-8.3c0-7.6-10-8.2-10-12.1c0-1.8,1.7-3,3.8-3c2.1,0,5,1.1,6.8,2.4L537.3,200.8   L537.3,200.8z"/>
	<path id="May_green_elements_1_" class="st1" d="M2484,122.3c0,29.8-24.2,54-54,54h-118.3c-29.8,0-54-24.2-54-54   c0-29.8,24.2-54,54-54H2430C2459.8,68.3,2484,92.5,2484,122.3L2484,122.3z M2838.7,122.3c0-29.8-24.2-54-54-54l-118.3,0   c-29.8,0-54,24.2-54,54c0,29.8,24.2,54,54,54l118.3,0C2814.5,176.3,2838.7,152.1,2838.7,122.3L2838.7,122.3z M3548.6,122.3   c0-29.8-24.2-54-54-54h-118.3c-29.8,0-54,24.2-54,54c0,29.8,24.2,54,54,54h118.3C3524.4,176.3,3548.6,152.1,3548.6,122.3   L3548.6,122.3z M945.9,122.3c0-29.8-24.2-54-54-54c-29.8,0-54,24.2-54,54c0,29.8,24.2,54,54,54   C921.8,176.3,945.9,152.2,945.9,122.3L945.9,122.3z M1300.8,122.3c0-29.8-24.2-54-54-54c-29.8,0-54,24.2-54,54   c0,29.8,24.2,54,54,54C1276.7,176.3,1300.8,152.2,1300.8,122.3L1300.8,122.3z M709.3,122.3c0-29.8-24.2-54-54-54H537   c-29.8,0-54,24.2-54,54c0,29.8,24.2,54,54,54h118.3C685.1,176.3,709.3,152.2,709.3,122.3L709.3,122.3z M-118.8,122.3   c0-29.8-24.2-54-54-54h-118.3c-29.8,0-54,24.2-54,54c0,29.8,24.2,54,54,54h118.3C-143,176.3-118.8,152.2-118.8,122.3L-118.8,122.3z    M2010.5,122.3c0-29.8-24.2-54-54-54c-29.8,0-54,24.2-54,54c0,29.8,24.2,54,54,54C1986.4,176.3,2010.5,152.1,2010.5,122.3   L2010.5,122.3z M1773.9,122.3c0-29.8-24.2-54-54-54h-118.3c-29.8,0-54,24.2-54,54c0,29.8,24.2,54,54,54h118.3   C1749.7,176.3,1773.9,152.2,1773.9,122.3L1773.9,122.3z M3193,122.3c0-29.8-24.2-54-54-54c-29.8,0-54,24.2-54,54   c0,29.8,24.2,54,54,54C3168.8,176.3,3193,152.1,3193,122.3L3193,122.3z M4375.8,122.3c0-29.8-24.2-54-54-54h-118.3   c-29.8,0-54,24.2-54,54c0,29.8,24.2,54,54,54h118.3C4351.6,176.3,4375.8,152.2,4375.8,122.3L4375.8,122.3z M3795.5,122.3   c0,29.8,24.2,54,54,54s54-24.2,54-54c0-29.8-24.2-54-54-54S3795.5,92.5,3795.5,122.3L3795.5,122.3z"/>
	<path id="Blue-green_elements_1_" class="st2" d="M3913.6,122.3c0-29.8,24.2-54,54-54h118.3c29.8,0,54,24.2,54,54   c0,29.8-24.2,54-54,54h-118.3C3937.7,176.3,3913.6,152.1,3913.6,122.3L3913.6,122.3z M4494.1,122.3c0-29.8-24.2-54-54-54   c-29.8,0-54,24.2-54,54c0,29.8,24.2,54,54,54C4469.9,176.3,4494.1,152.1,4494.1,122.3L4494.1,122.3z M2602.3,122.3   c0-29.8-24.2-54-54-54c-29.8,0-54,24.2-54,54c0,29.8,24.2,54,54,54C2578.1,176.3,2602.3,152.2,2602.3,122.3L2602.3,122.3z    M827.6,122.3c0-29.8-24.2-54-54-54s-54,24.2-54,54c0,29.8,24.2,54,54,54S827.6,152.2,827.6,122.3L827.6,122.3z M1182.5,122.3   c0-29.8-24.2-54-54-54h-118.3c-29.8,0-54,24.2-54,54c0,29.8,24.2,54,54,54h118.3C1158.4,176.3,1182.5,152.2,1182.5,122.3   L1182.5,122.3z M1537.2,122.3c0-29.8-24.2-54-54-54h-118.3c-29.8,0-54,24.2-54,54c0,29.8,24.2,54,54,54h118.3   C1513,176.3,1537.2,152.2,1537.2,122.3L1537.2,122.3z M-0.5,122.3c0-29.8-24.2-54-54-54c-29.8,0-54,24.2-54,54   c0,29.8,24.2,54,54,54C-24.7,176.3-0.5,152.2-0.5,122.3L-0.5,122.3z M1892.2,122.3c0-29.8-24.2-54-54-54c-29.8,0-54,24.2-54,54   c0,29.8,24.2,54,54,54C1868.1,176.3,1892.2,152.2,1892.2,122.3L1892.2,122.3z M2247.1,122.3c0-29.8-24.2-54-54-54h-118.3   c-29.8,0-54,24.2-54,54c0,29.8,24.2,54,54,54h118.3C2223,176.3,2247.1,152.2,2247.1,122.3L2247.1,122.3z M-354.8,122.3   c0-29.8-24.2-54-54-54h-118.3c-29.8,0-54,24.2-54,54c0,29.8,24.2,54,54,54h118.3C-379,176.3-354.8,152.2-354.8,122.3L-354.8,122.3z    M3074.7,122.3c0-29.8-24.2-54-54-54h-118.3c-29.8,0-54,24.2-54,54c0,29.8,24.2,54,54,54h118.3   C3050.5,176.3,3074.7,152.2,3074.7,122.3L3074.7,122.3z M3311.4,122.3c0-29.8-24.2-54-54-54c-29.8,0-54,24.2-54,54   c0,29.8,24.2,54,54,54C3287.2,176.3,3311.4,152.2,3311.4,122.3L3311.4,122.3z M3785.2,122.3c0-29.8-24.2-54-54-54h-118.3   c-29.8,0-54,24.2-54,54c0,29.8,24.2,54,54,54h118.3C3761,176.3,3785.2,152.2,3785.2,122.3L3785.2,122.3z"/>
</g>
</svg>
