<?xml version="1.0" encoding="utf-8"?>
<!-- Generator: Adobe Illustrator 25.2.0, SVG Export Plug-In . SVG Version: 6.00 Build 0)  -->
<svg version="1.1" id="Layer_1" xmlns="http://www.w3.org/2000/svg" xmlns:xlink="http://www.w3.org/1999/xlink" x="0px" y="0px"
	 viewBox="0 0 429.5 97" style="enable-background:new 0 0 429.5 97;" xml:space="preserve">
<style type="text/css">
	.st0{fill:#39B54A;}
	.st1{clip-path:url(#XMLID_14_);}
</style>
<rect id="XMLID_9_" x="158.8" y="4.5" width="22.2" height="86.8"/>
<polygon id="XMLID_8_" class="st0" points="207.5,23.3 181.7,49.1 215.3,91.3 243.4,91.3 208.4,49.8 234.8,23.3 "/>
<g id="XMLID_10_">
	<defs>
		<rect id="XMLID_1_" x="5.2" y="4.5" width="418" height="89.6"/>
	</defs>
	<clipPath id="XMLID_14_">
		<use xlink:href="#XMLID_1_"  style="overflow:visible;"/>
	</clipPath>
	<path id="XMLID_12_" class="st1" d="M121.1,59.8c-0.1,3.1,0,5.2-2.1,8.3c-4.2,6.5-13.4,10.2-22.7,10.2c-2.8,0-14.8-0.1-14.8-8.7
		c0-6.6,6.7-8.1,8.3-8.5C95.9,59.8,106.4,59.8,121.1,59.8 M84.5,41.2c2.6-4.4,10.7-5,17.5-5c19.5,0,19.2,6.5,19.1,12.2l-21,0
		C78.7,48.7,58,48.9,58,70.5c0,10.9,7.3,18,16.8,20.7c5.1,1.5,10.5,1.9,15.9,1.9c15.2,0,23.1-4.7,30.4-9c0,0,6.8,7.3,20.6,7.3h1.7
		l0-40.3c0-14.2,0.1-30.1-40.7-30.1c-6.5,0-21.9,0.1-31.2,5.9c-7.2,4.6-9,10.4-9.7,14.4L84.5,41.2z"/>
	<path id="XMLID_11_" class="st1" d="M282.4,36.4c15.5-0.8,24.9,8.1,24.9,20.2c0,9.4-5.2,21.1-23.5,21.1
		c-22.4,0-23.9-16.4-23.9-20.2C259.8,47.1,266.3,37.3,282.4,36.4 M284.4,20.2c-27.2-0.1-47.6,14.2-47.6,37.1
		c0,22.5,19,36.8,46.8,36.8c25.5,0,46.5-13.2,46.5-37.9C330.1,36.8,314.3,20.3,284.4,20.2"/>
	<path id="XMLID_3_" class="st1" d="M345.6,30.9c-6,6.7-5.9,15.4-6.1,22.7v37.6l21.9,0V54.6c0-13.1,8.5-17.7,19.9-17.7
		c11.4,0,19.9,4.6,19.9,17.7v36.7l21.9,0l0-37.6c-0.1-7.4-0.2-16-6-22.7c-2.7-3.1-8.7-9.7-35.8-9.7
		C353.3,21.3,348.3,27.9,345.6,30.9"/>
	<path id="XMLID_2_" class="st1" d="M56,21.5c-2.7-0.2-5.7-0.3-9-0.3c-28,0-33.1,6.7-35.7,9.7c-6,6.7-5.9,15.4-6.1,22.7l0,37.6
		l21.9,0l0-36.7c0-13.1,8.5-17.7,19.9-17.7c3.3,0,6.2,0.4,9,1.2L56,21.5z"/>
</g>
</svg>
