<svg width="94" height="50" fill="none" xmlns="http://www.w3.org/2000/svg"><path d="M3.189 34.238h11.573L3.19 22.474v11.764zM0 37.732V14.47l22.893 23.275H0v-.013z" fill="#999"/><path d="M30.592 48.112c.953 0 1.614-.14 1.995-.42.381-.28.571-.75.571-1.397 0-.572-.152-.991-.47-1.27-.317-.28-.8-.42-1.448-.42h-2.376v3.52h1.728v-.013zm-3.049-4.536h3.672c1.042 0 1.842.242 2.4.712.56.47.84 1.156.84 2.032 0 .928-.293 1.627-.89 2.096-.597.47-1.486.7-2.693.7h-3.329v-5.54zm-12.78 5.54v-5.54h5.806v.953H16.07v1.22h2.617v.952H16.07v1.385h4.561v1.017h-5.87v.012zm-13.238-5.54v1.868h3.493c.267 0 .458-.038.547-.115.101-.076.152-.216.152-.419v-.8c0-.19-.05-.33-.152-.407-.102-.076-.28-.114-.547-.114H1.525v-.013zM0 42.407h5.692c.52 0 .902.102 1.13.305.229.203.356.547.356 1.004v1.575c0 .458-.114.8-.356 1.004-.228.216-.61.317-1.13.317h-.877c1.016.839 2.033 1.665 3.049 2.503h-2.21c-.89-.838-1.78-1.664-2.668-2.503H1.525v2.503H.013v-6.708H0zm74.41 2.186h-4.396v3.455h4.396v-3.456zm-5.425-.737c.19-.178.559-.28 1.118-.28h4.218c.559 0 .927.09 1.118.28.19.177.28.52.28 1.029v2.922c0 .508-.102.85-.293 1.041-.19.178-.559.28-1.105.28h-4.218c-.546 0-.927-.089-1.118-.28-.19-.177-.28-.533-.28-1.041v-2.922c-.012-.508.09-.852.28-1.03zm-8.88-.28h1.308v5.54h-1.308v-5.54zm-13.238 5.54v-6.709h1.511v5.425h4.98v1.283h-6.491zm41.899 0L84.14 45.38v3.735h-1.207v-5.539h.915l4.637 3.672v-3.672h1.207v5.54h-.927zM46.74 37.731V0h10.506v27.048h32.498v10.684H46.74zM30.643 0c6.835 0 12.374 5.628 12.374 12.577 0 6.95-5.552 12.578-12.374 12.578 4.129 4.192 8.258 8.385 12.374 12.59H28.153L5.247 14.458h25.396c1.03 0 1.855-.852 1.855-1.88 0-1.042-.826-1.894-1.855-1.894H0V0h30.643zM90.99 45.888v-1.766h-.559v-.355h1.397v.355h-.457v1.766h-.38zm2.655 0V44.3l-.457 1.487h-.305l-.457-1.487v1.588h-.369v-2.121h.508l.458 1.473.495-1.473H94v2.121h-.356z" fill="#696969"/></svg>