<svg width="41" height="58" fill="none" xmlns="http://www.w3.org/2000/svg"><g clip-path="url(#clip0_401_4113)"><path d="M0 57.828h40.78V.172H0v57.656z" fill="#fff"/><path d="M17.957 22.995H0v8.465h17.957v-8.465zM0 57.828h17.957v-7.254H0v7.254z" fill="#6B6B6B"/><path d="M18.53 31.46h5.135V17.287H0v5.135h18.53v9.038zm0 26.369h5.135v-7.255H18.53v7.255z" fill="#727272"/><path d="M24.238 31.46h5.136V11.578H0v5.135h24.238V31.46zm0 26.368h5.136v-7.254h-5.136v7.254z" fill="#575757"/><path d="M29.947 31.46h5.135V5.88H0v5.136h29.947v20.443zm0 26.367h5.135v-7.254h-5.135v7.255z" fill="#494949"/><path d="M0 .172v5.136h35.644V31.47h5.135V.172H0zm35.644 57.656h5.135v-7.255h-5.135v7.255z" fill="#575757"/><path d="M0 48.151h40.78V46.52H0v1.633zM7.757 37.46c-.176.675-.757 1.094-1.514 1.094H4.77l.527-1.946h1.73c.325 0 .568.081.676.23.149.176.094.46.054.621zm2.068-2.176c-.487-.649-1.298-.987-2.338-.987H3.433l-1.136 4.27H0v2.19h1.703L.622 44.77h2.486l1.068-3.987h1l.919 3.986h2.73L7.73 40.42a3.958 3.958 0 002.432-2.717c.257-.933.135-1.798-.337-2.42zm-.311 9.486H12l2.798-10.46H12.31L9.514 44.77zm27.46-2.297l2.189-8.162h-2.486l-2.798 10.46h6.906v-2.298h-3.811zm-7.825-1.797l1.554-2.568.122 2.568h-1.676zm3.406-6.365h-1.892l-6.635 10.46h2.73l1.162-1.892h2.973l.148 1.892h2.554l-1.04-10.46zm-11.081 0h-5.798l-.622 2.297h1.825l-2.19 8.163h2.487l2.19-8.163h1.486l.622-2.297zm.553 0l-.621 2.297h1.676l-2.19 8.163h2.487l2.19-8.163h1.62l.622-2.297h-5.784z" fill="#151922"/></g><defs><clipPath id="clip0_401_4113"><path fill="#fff" transform="translate(0 .172)" d="M0 0h40.779v57.655H0z"/></clipPath></defs></svg>