<svg width="116" height="24" fill="none" xmlns="http://www.w3.org/2000/svg"><path d="M11.217 10.346a2.928 2.928 0 01-2.94 2.94h-4.82a2.928 2.928 0 01-2.94-2.94V3.43A2.928 2.928 0 013.457.49h4.82a2.928 2.928 0 012.94 2.94v6.916zM8.304 0h-4.9A3.404 3.404 0 000 3.403v7.024a3.404 3.404 0 003.403 3.404h4.9a3.404 3.404 0 003.404-3.404V3.376C11.707 1.497 10.182 0 8.304 0z" fill="#2E2E2E"/><path d="M5.336 3.322v.572c-.19.163-.326.38-.326.653 0 .463.38.844.844.844a.848.848 0 00.844-.844.811.811 0 00-.327-.653v-.572H5.336z" fill="#2E2E2E"/><path d="M8.25 1.17H3.484a2.341 2.341 0 00-2.341 2.342v1.66c0 1.28 1.034 2.478 2.341 2.478h2.532l-.381.735c-.327.11-.626.381-.626.79 0 .272.109.49.326.653v.545h1.008v-.545c.19-.163.3-.381.3-.626a.754.754 0 00-.083-.354l.572-1.17H8.25c.382 0 .681.299.681.68v2.07c0 .38-.3.68-.68.68H3.43c-.38 0-.68-.3-.68-.68V9.364H1.144v.953a2.341 2.341 0 002.341 2.342h4.737a2.341 2.341 0 002.342-2.342V8.494a2.341 2.341 0 00-2.342-2.341h-.354l.626-1.307-.925-.463-.844 1.742H3.43c-.382 0-.681-.435-.681-.816V3.403c0-.381.3-.68.68-.68h4.82c.38 0 .68.299.68.68v1.143h1.634V3.54a2.308 2.308 0 00-2.314-2.37zm40.511 11.435V1.252H46.53v4.493h-4.383V1.252H39.94v11.353h2.206V7.95h4.383v4.655h2.232zM38.17 10.4h-5.608V3.43h5.608V1.252h-6.779c-.572 0-1.035.49-1.035 1.117v9.147c0 .627.463 1.09 1.035 1.09h6.78V10.4zm-9.692 1.116V7.024c0-.626-.463-1.116-1.062-1.116h-5.581V3.43h6.643V2.341c0-.626-.463-1.116-1.062-1.116h-6.779c-.572 0-1.035.49-1.035 1.116v4.601c0 .627.463 1.117 1.035 1.117h5.609v2.314h-6.643v1.089c0 .626.462 1.089 1.034 1.089h6.78c.625.054 1.061-.436 1.061-1.035zm44.351 1.089V10.4h-5.963V7.95h5.582V5.745h-5.582V3.43h5.963V1.252H64.66v11.353h8.168zM95.1 11.516V7.024c0-.626-.463-1.116-1.063-1.116H88.43V3.43h6.67V2.341c0-.626-.463-1.116-1.062-1.116h-6.752c-.571 0-1.034.49-1.034 1.116V6.97c0 .626.463 1.116 1.034 1.116h5.609V10.4h-6.643v1.116c0 .627.463 1.09 1.034 1.09h6.78c.599 0 1.034-.49 1.034-1.09zm20.5 1.089v-2.014h-5.146V1.225h-2.205v11.38h7.351zm-53.063 0V2.287c0-.653-.462-1.143-1.062-1.143h-9.528c-.6 0-1.062.49-1.062 1.143v10.319h2.232V3.348h2.45v9.256h2.26V3.35h2.45v9.256h2.26zm21.59 0h-2.233V7.95h-4.791v4.655H74.87V1.252h8.195c.599 0 1.062.49 1.062 1.117v3.376c0 .68-.98 1.116-1.58 1.116.6 0 1.58.463 1.58 1.089v4.655zm-2.233-9.202H77.13v2.342h4.764V3.403zm24.095 9.202h-2.232V7.95h-4.33v4.655h-2.204V2.37c0-.627.463-1.117 1.034-1.117h6.698c.599 0 1.062.49 1.062 1.117v10.236h-.028zm-2.232-9.202h-4.33v2.342h4.33V3.403zM115.6 17.18h-1.334l-1.116 2.068-1.116-2.069h-1.443l1.878 3.349v2.396h1.28V20.5l1.851-3.322zm-6.071 0h-4.356v1.116h1.524v4.628h1.28v-4.628h1.525v-1.117h.027zm-8.658 4.655v-1.28h2.26v-1.089h-2.26v-1.198h2.668V17.18h-3.948v5.745h4.03v-1.09h-2.75zm-3.294-3.567V17.18H93.71v5.745h1.28V20.61h2.177v-1.09H94.99v-1.252h2.587zm-8.331.354l.599 2.096h-1.198l.599-2.096zm1.252 4.302h1.334L89.9 17.179h-1.307l-1.933 5.745h1.28l.354-1.17h1.797l.408 1.17zm-7.433.109c1.443 0 2.151-.572 2.151-1.77 0-1.089-.463-1.606-1.797-1.797-.816-.109-1.116-.3-1.116-.735 0-.381.272-.599.79-.599.544 0 .816.245.816.762h1.226c0-1.197-.681-1.77-2.015-1.77-1.361 0-2.097.6-2.097 1.77 0 1.035.49 1.525 1.77 1.716.844.136 1.144.326 1.144.816 0 .409-.273.627-.844.627-.627 0-.926-.245-.926-.79h-1.225c0 1.198.653 1.77 2.124 1.77zm-6.996-4.765V17.18h-3.867v5.745h1.28V20.61h2.178v-1.09h-2.178v-1.252h2.587zM67.6 21.944c-.762 0-1.061-.354-1.061-1.28V19.44c0-.898.299-1.28 1.061-1.28.763 0 1.062.354 1.062 1.28v1.225c0 .926-.3 1.28-1.062 1.28zm0 1.089c1.58 0 2.314-.735 2.314-2.342v-1.28c0-1.606-.735-2.34-2.314-2.34-1.579 0-2.314.734-2.314 2.34v1.28c0 1.607.735 2.342 2.314 2.342zm-9.8-4.41l.598 2.095h-1.17l.571-2.096zm1.252 4.3h1.334l-1.934-5.744h-1.306l-1.933 5.745h1.28l.353-1.17h1.797l.409 1.17zm-6.889-5.744V20.8l-1.96-3.62H48.87v5.744h1.198v-3.866l2.096 3.866h1.198v-5.745h-1.198zm-6.806 3.458c0 .898-.3 1.198-1.143 1.198h-.681V18.24h.68c.845 0 1.144.3 1.144 1.198v1.198zm-.98-3.458h-2.151v5.745h2.15c1.553 0 2.233-.708 2.233-2.26V19.44c0-1.552-.68-2.26-2.232-2.26zm-10.264 4.656v-1.28h2.26v-1.089h-2.26v-1.198h2.668V17.18h-3.948v5.745h4.03v-1.09h-2.75zm-5.01-4.656v2.26h-1.987v-2.26h-1.28v5.745h1.28v-2.369h1.987v2.369h1.28v-5.745h-1.28zm-5.145 0h-4.357v1.117h1.525v4.628h1.28v-4.628h1.524v-1.117h.028z" fill="#2E2E2E"/></svg>