<svg width="89" height="30" fill="none" xmlns="http://www.w3.org/2000/svg"><path fill-rule="evenodd" clip-rule="evenodd" d="M7.696.446C5.498 1.105 3.236 2.9 2.134 4.86c-1.52 2.705-1.16 6.878.772 8.932 1.873 1.993 3.532 2.63 8.554 3.292 4.674.615 5.642.972 6.38 2.35 1.292 2.415-1.278 4.75-5.226 4.75-2.893 0-5.08-1.191-5.79-3.155l-.591-1.635H.477l.1 1.89C.69 23.61 2.94 26.53 5.717 27.96c2.048 1.054 2.954 1.212 6.884 1.206 3.757-.006 4.902-.193 6.74-1.101 5.17-2.554 6.76-9.071 3.203-13.123-1.675-1.908-4.358-2.892-9.61-3.526-3.988-.482-5.546-1.362-5.546-3.136 0-1.412 1.9-3.08 3.874-3.4 2.36-.383 5.095.883 5.77 2.67.222.59.468 1.45.468 1.45s1.471-.016 3.294-.016c1.803 0 2.718 0 2.706.016 0-.5 0-2-.392-3.154C21.26 1.776 18-.037 12.614.009c-1.96.017-4.173.213-4.918.437zM43.063.74c-2.76 1.203-4.813 3.085-6.107 5.594-1.697 3.291-2.075 10.251-.781 14.376 2.041 6.506 9.614 10.296 16.011 8.015 4.09-1.459 6.882-4.448 7.681-8.221l.327-1.544h-6.713l-.702 1.68c-1.346 3.22-6.125 3.801-8.69 1.056-2.146-2.294-2.647-9.682-.89-13.082 1.343-2.595 4.814-3.69 7.63-2.406.664.303 1.582 1.366 2.042 2.363l.834 1.813 3.245.012 3.244.013-.336-1.544C58.608 3.115 54.356-.065 48.005 0c-1.829.019-4.053.352-4.942.739zM26.39 14.705v14.273h6.888l.126-14.413L33.53.434h-7.14v14.272zm35.154 0v14.273H68.5l.17-4.14c.231-3.768.287-3.913 2.307-6.101C72.115 17.504 73 16.5 73 16.5c.19.22 2.404 3.416 4.44 6.616l3.7 5.82h3.792c3.083 0 3.902.064 3.787-.238-.143-.371-2.866-4.76-5.74-9.217l-5.227-8.104 4.931-5.353 5.17-5.632h-8.48l-5.328 5.603-5.329 5.602-.023-5.582L68.67.433h-7.126v14.272z" fill="#000"/></svg>