<svg width="115" height="24" fill="none" xmlns="http://www.w3.org/2000/svg"><g clip-path="url(#clip0_401_4947)"><path d="M56.535.006V24h14.75c9.458 0 13.493-6.6 13.493-12 0-5.388-4.04-11.994-13.494-11.994H56.535m6.27 18.796V5.1h9.704c2.596 0 6.195 2.761 6.195 6.906 0 4.053-3.63 6.796-6.195 6.796h-9.705zM37.861 5.1V24h6.54V5.1h10.848V0H27.02v5.1h10.84zM92.449 0h-6.557v24h6.557V0zm.178 11.467L104.958 0h8.687l-12.93 11.467L114.337 24h-9.073L92.627 11.467zm-73.703-1.322l-5.07-5.076-5.075 5.076h10.145z" fill="#505050"/><path d="M8.78 0l5.075 5.07L18.925 0H8.778zm5.075 18.919l6.925-1.85-1.855-6.924-5.07 8.774z" fill="#505050"/><path d="M13.855 18.918L5.07 24h17.566l-8.78-5.082zM0 15.214L8.78 0v10.145L0 15.215zm27.71 0L18.924 0v10.145l8.786 5.07z" fill="#505050"/><path d="M27.71 15.214l-6.93 1.856L22.633 24l5.076-8.786z" fill="#0066B2"/><path d="M8.78 10.145l-1.85 6.93 6.925 1.844-5.075-8.774zM5.07 24l1.86-6.924L0 15.214 5.07 24z" fill="#505050"/></g><defs><clipPath id="clip0_401_4947"><path fill="#fff" d="M0 0h114.337v24H0z"/></clipPath></defs></svg>