<svg width="132" height="19" fill="none" xmlns="http://www.w3.org/2000/svg"><path d="M20.032 9.476c0 2.692-.986 4.953-2.955 6.78C15.107 18.087 12.72 19 9.916 19c-2.74 0-5.076-.9-7.012-2.695C.968 14.511 0 12.297 0 9.667 0 6.941.952 4.65 2.854 2.79 4.79.93 7.177 0 10.014 0c2.773 0 5.126.914 7.063 2.742 1.97 1.828 2.955 4.072 2.955 6.733" fill="#585858"/><path d="M18.83 9.521c0-2.34-.87-4.341-2.605-6.009-1.735-1.668-3.823-2.503-6.26-2.503-2.404 0-4.474.835-6.21 2.503C2.018 5.146 1.15 7.117 1.15 9.426c0 2.409.852 4.459 2.555 6.157 1.702 1.67 3.789 2.502 6.26 2.502 2.436 0 4.524-.833 6.259-2.502 1.735-1.698 2.605-3.719 2.605-6.062" fill="#fff"/><path d="M9.35 13.345H4.07a6.32 6.32 0 01-.872-1.55h.776V7.594H2.908c.097-.488.29-1.017.58-1.596H9.35V3.92l-4.385.017c.864-.742 1.729-1.282 2.593-1.615H12.5c1.048.471 1.895 1.006 2.538 1.604l-4.38-.006v2.077h5.91c.241.51.428 1.044.558 1.593l-6.467.003v1.303l3.681-.003v1.548h-3.681v1.354l6.137-.002a5.832 5.832 0 01-.858 1.552h-5.28l-.002 3.333H9.347l.002-3.333" fill="#585858"/><path d="M5.523 7.59v1.306H9.35V7.59H5.523zm0 2.85v1.355H9.35V10.44H5.523z" fill="#fff"/><path d="M23.487 18.722h108.365V.277H23.487v18.445z" fill="#585858"/><path d="M100.224 2.629c-.23.006-.485.08-.731.226-.66.39-1.03 1.14-.827 1.684.208.542.91.666 1.568.277.658-.39 1.025-1.142.822-1.684-.128-.34-.449-.516-.832-.503zm-72.873.1v1.886h3.73v8.41h2.567v-8.41h3.727V2.729H27.35zm16.084 0v10.296h2.183V2.73h-2.183zM38.968 5.93c-2.143 0-3.666 1.506-3.666 3.635 0 2.172 1.587 3.595 4.034 3.595.543 0 1.852 0 3.105-.922v-1.377c-1.026.742-1.706.999-2.581.999-1.374 0-2.22-.725-2.294-1.962h4.997c.105-2.536-1.572-3.968-3.595-3.968zm11.218 0c-2.144 0-3.67 1.506-3.67 3.635 0 2.172 1.582 3.595 4.028 3.595.546 0 1.86 0 3.112-.922v-1.377c-1.027.742-1.705.999-2.582.999-1.372 0-2.218-.725-2.294-1.962h4.996c.105-2.536-1.568-3.968-3.59-3.968zm9.066 0c-.441 0-.848.073-1.255.237-.427.2-.82.466-1.166.787v-.89h-2.187v6.959h2.188V8.36c.53-.635 1.1-.963 1.674-.963.65 0 1.331.375 1.331 1.507v4.12h2.188V8.572c.498-.77 1.088-1.175 1.72-1.175.803 0 1.285.554 1.285 1.549v4.079h2.188V8.552c0-1.583-1.134-2.622-2.717-2.622-1.041 0-1.842.435-2.748 1.477-.481-.996-1.294-1.477-2.5-1.477zm12.519 0c-2.143 0-3.67 1.506-3.67 3.635 0 2.172 1.587 3.595 4.033 3.595.543 0 1.858 0 3.112-.922v-1.377c-1.03.742-1.714.999-2.588.999-1.372 0-2.218-.725-2.293-1.962h4.997c.105-2.536-1.567-3.968-3.591-3.968zm8.033 0c-2.294 0-3.938 1.506-3.938 3.635 0 2.172 1.58 3.595 4.029 3.595.739 0 1.48-.155 2.359-.469v-1.568c-.968.362-1.437.485-1.967.485-1.254 0-2.082-.817-2.082-2.053 0-1.223.846-2.012 2.158-2.012.545 0 1.206.166 1.78.47V6.378c-.726-.27-1.63-.448-2.34-.448zm6.312 0c-1.1 0-2.112.283-3.02.842v1.78c.697-.708 1.69-1.155 2.566-1.155.953 0 1.258.507 1.21 1.155-2.912.904-4.139 1.243-4.139 2.904 0 .873.833 1.704 1.952 1.704.752 0 1.45-.21 2.293-.787.149.559.498.787 1.22.787.589 0 1.45-.274 2.053-.635v-1.22c-.512.362-.678.393-.827.393-.228 0-.364-.141-.364-.49V8.044c0-1.525-1.19-2.112-2.944-2.112zm8.87 0c-.887 0-1.571.33-2.264 1.13v-.994h-2.189v6.958h2.189V8.543c.575-.86.98-1.145 1.523-1.145.618 0 1.088.403 1.088 1.382v4.245h2.193V8.598c0-2.053-1.448-2.667-2.54-2.667zm10.094 0c-1.843 0-3.233 1.51-3.233 3.529 0 2.224 1.359 3.701 3.414 3.701.632 0 1.296-.181 1.795-.484v3.797h2.188V6.066h-2.188v.606c-.603-.514-1.236-.742-1.976-.742zm16.83 0c-2.144 0-3.671 1.506-3.671 3.635 0 2.172 1.585 3.595 4.029 3.595.544 0 1.855 0 3.111-.922v-1.377c-1.027.742-1.704.999-2.577.999-1.377 0-2.221-.725-2.299-1.962h4.997c.105-2.536-1.566-3.968-3.59-3.968zm-23.138.126v6.968h2.183V6.057h-2.183zm11.652.01v4.452c0 1.797 1.177 2.642 2.552 2.642.874 0 1.554-.33 2.248-1.129v.993h2.194V6.068h-2.204v4.436c-.231.678-.832 1.195-1.497 1.195-.575 0-1.105-.349-1.105-1.331V6.067h-2.188zm-71.3 1.16c.844 0 1.417.576 1.507 1.528h-3.02c.09-.964.652-1.529 1.513-1.529zm11.208 0c.847 0 1.422.576 1.513 1.528h-3.02c.09-.964.649-1.529 1.507-1.529zm21.59 0c.847 0 1.422.576 1.513 1.528H70.41c.092-.964.654-1.529 1.513-1.529zm50.14 0c.844 0 1.415.576 1.507 1.528h-3.02c.092-.964.653-1.529 1.513-1.529zm-16.363.256c.482 0 .831.139 1.357.56v3.202c-.439.315-.812.454-1.266.454-1.073 0-1.724-.82-1.724-2.118 0-1.327.59-2.098 1.633-2.098zM86.872 9.657v1.674c-.358.334-.802.53-1.21.53-.394 0-.706-.328-.706-.737 0-.694.62-1 1.916-1.467z" fill="#fff"/></svg>