<svg width="131" height="20" fill="none" xmlns="http://www.w3.org/2000/svg"><path d="M125.177 19.588h5.65L124.997.347h-8.03l-5.829 19.24h5.651l1.031-3.56h6.322l1.035 3.56v.001zm-6.134-7.84l1.923-6.648h.033l1.923 6.647h-3.879zm-90.837 8.185c5.802 0 8.607-1.022 9.004-6.257.096-1.246.113-2.525.113-3.711.002-1.182-.017-2.462-.113-3.707C36.813 1.02 34.01 0 28.206 0c-5.802 0-8.605 1.02-9 6.258-.098 1.245-.117 2.526-.117 3.707.002 1.185.02 2.465.116 3.71.396 5.236 3.2 6.258 9.001 6.258zm-3.648-9.967c0-1.058.026-1.682.049-2.145.147-2.97 1.32-3.317 3.6-3.317 2.28 0 3.453.346 3.598 3.317.023.463.052 1.087.052 2.144 0 1.06-.028 1.686-.051 2.148-.146 2.97-1.318 3.318-3.6 3.318-2.279 0-3.452-.347-3.599-3.318a40.196 40.196 0 01-.05-2.148zM0 .356V5.15h5.752v14.446h5.754V5.152h5.752V.355H0zm88.284 19.232V.345h-5.46v19.242h5.46v.001zM66.313 7.372V.345h-5.43v19.242h5.43v-7.42h6.309v7.42h5.427V.345h-5.427v7.026h-6.31zm39.93 2.16c2.418-.62 3.128-2.064 3.128-4.152 0-4.229-2.66-5.034-6.443-5.034h-9.804v19.241h10.29c4.737 0 6.33-2.04 6.33-5.18 0-2.188-.5-4.12-3.501-4.877v.001zm-7.691 2.152h3.764c1.521 0 1.839.667 1.839 1.75 0 1.085-.596 1.753-1.839 1.753h-3.764v-3.503zm0-6.938h3.764c.983 0 1.592.467 1.592 1.588 0 .961-.602 1.553-1.592 1.553h-3.764v-3.14zm-58.064 8.528h5.175c.005.933.125 1.557.578 1.901.515.388.976.516 2.505.516 1.472 0 3.085 0 3.085-1.812 0-1.43-.902-1.756-2.565-1.845-4.124-.218-5.615-.334-7.151-1.475-1.046-.778-1.59-2.292-1.59-4.341 0-3.482 1.215-4.704 2.968-5.557 1.809-.88 8.908-.88 10.819 0 2.401 1.107 2.472 3.503 2.472 5.726H51.62c-.01-1.134-.265-1.454-.473-1.664-.537-.476-1.3-.576-2.401-.576-1.336 0-2.88.06-2.88 1.68 0 1.236.535 1.754 1.939 1.844 1.928.123 5.727.246 7.081 1.044 1.898 1.123 2.39 2.643 2.39 5.122 0 3.583-1.281 4.635-3.065 5.423-2.06.908-8.936.908-11.171-.07-2.503-1.092-2.553-3.266-2.553-5.917" fill="#4D4D4D"/></svg>