<?xml version="1.0" encoding="UTF-8" standalone="no"?>
<!-- Created with Inkscape (http://www.inkscape.org/) -->

<svg
   xmlns:dc="http://purl.org/dc/elements/1.1/"
   xmlns:cc="http://creativecommons.org/ns#"
   xmlns:rdf="http://www.w3.org/1999/02/22-rdf-syntax-ns#"
   xmlns:svg="http://www.w3.org/2000/svg"
   xmlns="http://www.w3.org/2000/svg"
   xmlns:sodipodi="http://sodipodi.sourceforge.net/DTD/sodipodi-0.dtd"
   xmlns:inkscape="http://www.inkscape.org/namespaces/inkscape"
   width="222.66985"
   height="66.357338"
   viewBox="0 0 58.914729 17.557046"
   version="1.1"
   id="svg8504"
   inkscape:version="0.92.0 r15299"
   sodipodi:docname="tt electronics.svg">
  <defs
     id="defs8498">
    <clipPath
       id="clipPath7493"
       clipPathUnits="userSpaceOnUse">
      <path
         inkscape:connector-curvature="0"
         id="path7491"
         d="M 0,0 H 595.276 V 841.89 H 0 Z" />
    </clipPath>
  </defs>
  <sodipodi:namedview
     id="base"
     pagecolor="#ffffff"
     bordercolor="#666666"
     borderopacity="1.0"
     inkscape:pageopacity="0.0"
     inkscape:pageshadow="2"
     inkscape:zoom="4.0648983"
     inkscape:cx="110.33486"
     inkscape:cy="32.1787"
     inkscape:document-units="mm"
     inkscape:current-layer="layer1"
     showgrid="false"
     fit-margin-top="0"
     fit-margin-left="0"
     fit-margin-right="0"
     fit-margin-bottom="0"
     units="px"
     inkscape:window-width="1280"
     inkscape:window-height="744"
     inkscape:window-x="-4"
     inkscape:window-y="-4"
     inkscape:window-maximized="1" />
  <metadata
     id="metadata8501">
    <rdf:RDF>
      <cc:Work
         rdf:about="">
        <dc:format>image/svg+xml</dc:format>
        <dc:type
           rdf:resource="http://purl.org/dc/dcmitype/StillImage" />
        <dc:title></dc:title>
      </cc:Work>
    </rdf:RDF>
  </metadata>
  <g
     inkscape:label="Layer 1"
     inkscape:groupmode="layer"
     id="layer1"
     transform="translate(-57.741758,-154.15334)">
    <g
       id="g8669"
       transform="translate(0.26458399,-0.26457879)">
      <path
         d="m 80.077318,159.50225 c 0.182033,0 0.236714,0.0914 0.227894,0.20955 l -0.08255,0.73731 c -0.01799,0.19085 -0.136525,0.22754 -0.354894,0.22754 h -2.20345 v 1.35643 h 2.066925 c 0.200378,0 0.273403,0.10089 0.273403,0.24624 v 0.66498 c 0,0.18204 -0.09137,0.26388 -0.264584,0.26388 h -2.075744 v 1.43898 h 2.376664 c 0.163689,0 0.26423,0.0727 0.26423,0.24518 v 0.67487 c 0,0.1725 -0.08255,0.254 -0.255058,0.254 h -3.533422 c -0.209903,0 -0.300919,-0.054 -0.300919,-0.28187 v -5.78274 c 0,-0.15381 0.0829,-0.25435 0.237066,-0.25435 z"
         style="fill:#245a8b;fill-opacity:1;fill-rule:nonzero;stroke:none;stroke-width:0.35277778"
         id="path7497"
         inkscape:connector-curvature="0" />
      <path
         d="m 82.240481,165.56699 c 0,0.17251 -0.09137,0.25435 -0.236714,0.25435 h -0.883355 c -0.136878,0 -0.245887,-0.0727 -0.245887,-0.24588 v -5.90938 c 0,-0.18239 0.08185,-0.23742 0.218723,-0.25506 l 0.956027,-0.11854 c 0.127,0 0.191206,0.0822 0.191206,0.22755 z"
         style="fill:#245a8b;fill-opacity:1;fill-rule:nonzero;stroke:none;stroke-width:0.35277778"
         id="path7501"
         inkscape:connector-curvature="0" />
      <path
         d="m 87.010072,163.69953 c 0,0.21907 -0.09984,0.26494 -0.327025,0.26494 h -2.55023 c 0.109361,0.57255 0.619477,0.89217 1.175102,0.89217 0.400403,0 0.78352,-0.091 1.147586,-0.23742 0.03634,-0.0176 0.07267,-0.0268 0.109009,-0.0268 0.0822,0 0.127352,0.0547 0.145697,0.12735 0.03634,0.15487 0.173214,0.57397 0.173214,0.71014 0,0.11854 -0.0822,0.15487 -0.173214,0.20038 -0.4826,0.21837 -1.12007,0.30974 -1.647825,0.30974 -1.448153,0 -2.368197,-0.89288 -2.368197,-2.3495 0,-1.41111 0.956028,-2.33997 2.359025,-2.33997 0.582436,0 1.074561,0.21872 1.410758,0.58314 0.455436,0.48189 0.5461,1.1109 0.5461,1.74766 z m -1.338086,-0.60043 c 0,-0.39158 -0.227542,-0.79269 -0.70097,-0.79269 -0.455436,0 -0.755649,0.36442 -0.819855,0.79269 z"
         style="fill:#245a8b;fill-opacity:1;fill-rule:nonzero;stroke:none;stroke-width:0.35277778"
         id="path7505"
         inkscape:connector-curvature="0" />
      <path
         d="m 90.825998,165.66672 c -0.4826,0.21802 -0.856192,0.27305 -1.393825,0.27305 -1.383947,0 -2.230614,-0.82867 -2.230614,-2.2673 0,-1.47532 0.883003,-2.413 2.330803,-2.413 0.428625,0 0.8382,0.0635 1.266119,0.24624 0.127353,0.054 0.127353,0.13617 0.100189,0.26387 l -0.145344,0.65582 c -0.0187,0.0903 -0.06421,0.12665 -0.119239,0.12665 -0.03563,0 -0.08079,-0.0176 -0.126295,-0.0363 -0.255763,-0.0998 -0.520347,-0.17251 -0.801863,-0.17251 -0.709789,0 -1.092906,0.47378 -1.092906,1.2566 0,0.82832 0.400756,1.27493 1.029053,1.27493 0.39123,0 0.564444,-0.0554 0.911225,-0.19191 0.03598,-0.008 0.06315,-0.0272 0.100189,-0.0272 0.07232,0 0.108302,0.0547 0.127,0.11853 0.04551,0.16404 0.191205,0.58314 0.191205,0.72849 0,0.10054 -0.07303,0.12735 -0.145697,0.16404"
         style="fill:#245a8b;fill-opacity:1;fill-rule:nonzero;stroke:none;stroke-width:0.35277778"
         id="path7509"
         inkscape:connector-curvature="0" />
      <path
         d="m 93.960358,165.70292 c -0.345369,0.15487 -0.746125,0.23707 -1.165225,0.23707 -0.510117,0 -0.919339,-0.11889 -1.165225,-0.40993 -0.291747,-0.34608 -0.309739,-0.71896 -0.309739,-1.46615 v -1.74836 l 0.0088,-0.92816 v -0.95638 c 0,-0.18239 0.11818,-0.21872 0.282575,-0.23742 l 0.873125,-0.10901 c 0.137583,0 0.201083,0.0727 0.201083,0.23672 v 1.06609 h 0.993069 c 0.127,0 0.217664,0.054 0.217664,0.19085 v 0.52846 c 0,0.13618 -0.09066,0.20885 -0.217664,0.20885 h -0.993069 v 1.77553 c 0,0.47413 0.06315,0.76553 0.464961,0.76553 0.227189,0 0.399697,-0.0547 0.582083,-0.10936 0.05503,-0.0191 0.09137,-0.0275 0.127706,-0.0275 0.07303,0 0.108655,0.0459 0.127705,0.12735 l 0.109009,0.58279 c 0.0095,0.0272 0.0095,0.055 0.0095,0.0818 0,0.10055 -0.04621,0.1457 -0.146403,0.19121"
         style="fill:#245a8b;fill-opacity:1;fill-rule:nonzero;stroke:none;stroke-width:0.35277778"
         id="path7513"
         inkscape:connector-curvature="0" />
      <path
         d="m 95.797625,162.84383 v 2.72309 c 0,0.16369 -0.07232,0.25435 -0.254353,0.25435 h -0.856191 c -0.163689,0 -0.254706,-0.0818 -0.254706,-0.25435 v -3.91583 c 0,-0.21802 0.109008,-0.26388 0.263878,-0.26388 h 0.737305 c 0.173214,0 0.254706,0.0459 0.264231,0.18203 l 0.0187,0.27305 c 0.327025,-0.39158 0.600781,-0.58278 1.138061,-0.58278 0.07267,0 0.172156,0.018 0.255059,0.0363 0.118533,0.0272 0.118533,0.11853 0.09984,0.21908 l -0.137231,0.85548 c -0.01764,0.10054 -0.06315,0.1457 -0.144992,0.1457 -0.09066,0 -0.13723,-0.0272 -0.290688,-0.0272 -0.301273,0 -0.610659,0.1277 -0.838906,0.35489"
         style="fill:#245a8b;fill-opacity:1;fill-rule:nonzero;stroke:none;stroke-width:0.35277778"
         id="path7517"
         inkscape:connector-curvature="0" />
      <path
         d="m 99.407353,165.93988 c -1.539169,0 -2.257425,-0.99236 -2.257425,-2.34915 0,-1.33879 0.845608,-2.33115 2.320925,-2.33115 1.539877,0 2.257777,0.99236 2.257777,2.3495 0,1.33844 -0.84596,2.3308 -2.321277,2.3308 m 0.04586,-3.60574 c -0.674511,0 -0.892528,0.58243 -0.892528,1.24707 0,0.6738 0.190853,1.28411 0.865011,1.28411 0.673804,0 0.892534,-0.60078 0.892534,-1.26541 0,-0.67416 -0.19227,-1.26577 -0.865017,-1.26577"
         style="fill:#245a8b;fill-opacity:1;fill-rule:nonzero;stroke:none;stroke-width:0.35277778"
         id="path7521"
         inkscape:connector-curvature="0" />
      <path
         d="m 106.19081,165.54837 c 0,0.18239 -0.0639,0.2727 -0.26458,0.2727 h -0.8375 c -0.1912,0 -0.26317,-0.0998 -0.26317,-0.2727 v -2.42217 c 0,-0.38241 -0.10054,-0.63747 -0.51999,-0.63747 -0.29987,0 -0.67416,0.13617 -0.92816,0.35489 v 2.71392 c 0,0.17322 -0.0737,0.26353 -0.25506,0.26353 h -0.85584 c -0.15522,0 -0.25541,-0.0815 -0.25541,-0.24589 v -3.9243 c 0,-0.17321 0.0635,-0.26352 0.26388,-0.26352 h 0.74683 c 0.13617,0 0.23636,0.036 0.25506,0.19085 l 0.0187,0.1912 c 0.4184,-0.32808 0.91864,-0.50976 1.45662,-0.50976 1.00189,0 1.43863,0.62795 1.43863,1.62066 z"
         style="fill:#245a8b;fill-opacity:1;fill-rule:nonzero;stroke:none;stroke-width:0.35277778"
         id="path7525"
         inkscape:connector-curvature="0" />
      <path
         d="m 108.09489,165.55768 c 0,0.18168 -0.0815,0.26352 -0.26388,0.26352 h -0.81844 c -0.19191,0 -0.28293,-0.0631 -0.28293,-0.26352 v -3.93453 c 0,-0.18168 0.11783,-0.23601 0.28293,-0.23601 h 0.81844 c 0.17357,0 0.26388,0.0459 0.26388,0.23601 z"
         style="fill:#245a8b;fill-opacity:1;fill-rule:nonzero;stroke:none;stroke-width:0.35277778"
         id="path7529"
         inkscape:connector-curvature="0" />
      <path
         d="m 112.16457,165.66672 c -0.48295,0.21802 -0.85654,0.27305 -1.39382,0.27305 -1.38395,0 -2.22991,-0.82867 -2.22991,-2.2673 0,-1.47532 0.88265,-2.413 2.33045,-2.413 0.42756,0 0.83749,0.0635 1.26647,0.24624 0.12665,0.054 0.12665,0.13617 0.0998,0.26387 l -0.14569,0.65582 c -0.0187,0.0903 -0.0642,0.12665 -0.11818,0.12665 -0.0363,0 -0.0833,-0.0176 -0.12771,-0.0363 -0.25541,-0.0998 -0.51893,-0.17251 -0.80116,-0.17251 -0.71049,0 -1.0929,0.47378 -1.0929,1.2566 0,0.82832 0.4004,1.27493 1.0294,1.27493 0.39123,0 0.56374,-0.0554 0.90911,-0.19191 0.0378,-0.008 0.0646,-0.0272 0.1009,-0.0272 0.0727,0 0.109,0.0547 0.127,0.11853 0.0462,0.16404 0.19191,0.58314 0.19191,0.72849 0,0.10054 -0.0727,0.12735 -0.1457,0.16404"
         style="fill:#245a8b;fill-opacity:1;fill-rule:nonzero;stroke:none;stroke-width:0.35277778"
         id="path7533"
         inkscape:connector-curvature="0" />
      <path
         d="m 114.29814,165.93991 c -0.48295,0 -1.02059,-0.12806 -1.52118,-0.33655 -0.10054,-0.0363 -0.12735,-0.10089 -0.12735,-0.16475 0,-0.0356 0.009,-0.072 0.0176,-0.10865 l 0.18238,-0.57362 c 0.0367,-0.11853 0.073,-0.16404 0.13653,-0.16404 0.037,0 0.0825,0.009 0.14605,0.036 0.44591,0.18274 0.87418,0.28258 1.20121,0.28258 0.29174,0 0.49212,-0.11818 0.49212,-0.31856 0,-0.17357 -0.0907,-0.26388 -0.42756,-0.39158 l -0.81033,-0.30092 c -0.49142,-0.18168 -0.92887,-0.61878 -0.92887,-1.27494 0,-0.97367 0.92887,-1.36525 1.7392,-1.36525 0.47342,0 0.9465,0.0727 1.4291,0.29069 0.0822,0.0374 0.1277,0.0829 0.1277,0.15557 0,0.0272 -0.008,0.0635 -0.0176,0.0998 l -0.19192,0.63747 c -0.018,0.0727 -0.0818,0.10901 -0.15451,0.10901 -0.0275,0 -0.0642,-0.008 -0.0998,-0.0176 -0.34713,-0.12771 -0.71967,-0.21908 -1.01071,-0.21908 -0.30092,0 -0.43815,0.16404 -0.43815,0.2914 0,0.10936 0.0371,0.22754 0.34749,0.34607 l 0.91863,0.36442 c 0.46426,0.18168 0.81915,0.5648 0.81915,1.1751 0,1.04669 -0.92816,1.44745 -1.82915,1.44745"
         style="fill:#245a8b;fill-opacity:1;fill-rule:nonzero;stroke:none;stroke-width:0.35277778"
         id="path7537"
         inkscape:connector-curvature="0" />
      <path
         d="m 107.40348,160.85893 c -0.34643,0 -0.73836,-0.24589 -0.73836,-0.68298 0,-0.44626 0.36547,-0.70167 0.73836,-0.70167 0.36371,0 0.72849,0.25541 0.72849,0.69215 0,0.43815 -0.38277,0.6925 -0.72849,0.6925"
         style="fill:#245a8b;fill-opacity:1;fill-rule:nonzero;stroke:none;stroke-width:0.35277778"
         id="path7541"
         inkscape:connector-curvature="0" />
      <path
         d="m 74.769635,163.19679 c 0,4.70217 -3.812117,8.51359 -8.513939,8.51359 -4.702527,0 -8.513938,-3.81142 -8.513938,-8.51359 0,-4.70217 3.811411,-8.51429 8.513938,-8.51429 4.701822,0 8.513939,3.81212 8.513939,8.51429"
         style="fill:#5cb9eb;fill-opacity:1;fill-rule:nonzero;stroke:none;stroke-width:0.35277778"
         id="path7545"
         inkscape:connector-curvature="0" />
      <path
         d="m 66.882265,159.68397 -0.07267,0.71931 c -0.01799,0.18168 -0.136878,0.22755 -0.328084,0.22755 H 64.87884 v 4.90819 c 0,0.20038 -0.02716,0.23672 -0.209197,0.23672 H 63.64059 c -0.191205,0 -0.20955,-0.0268 -0.20955,-0.21873 v -4.92618 h -1.666169 c -0.182386,0 -0.255059,-0.0907 -0.255059,-0.27341 v -0.67345 c 0,-0.15487 0.08185,-0.22754 0.245886,-0.22754 h 4.899025 c 0.182034,0 0.245886,0.0907 0.227542,0.22754"
         style="fill:#ffffff;fill-opacity:1;fill-rule:nonzero;stroke:none;stroke-width:0.35277778"
         id="path7549"
         inkscape:connector-curvature="0" />
      <path
         d="m 70.9983,161.50557 -0.07303,0.71861 c -0.01834,0.18238 -0.136525,0.22825 -0.327731,0.22825 H 68.99487 v 4.90819 c 0,0.19967 -0.02716,0.23601 -0.209197,0.23601 H 67.75662 c -0.191205,0 -0.209903,-0.0272 -0.209903,-0.21802 v -4.92618 h -1.666169 c -0.181681,0 -0.254706,-0.091 -0.254706,-0.27305 v -0.67381 c 0,-0.15557 0.0822,-0.22825 0.245534,-0.22825 h 4.899025 c 0.182386,0 0.245533,0.0914 0.227894,0.22825"
         style="fill:#ffffff;fill-opacity:1;fill-rule:nonzero;stroke:none;stroke-width:0.35277778"
         id="path7553"
         inkscape:connector-curvature="0" />
    </g>
  </g>
</svg>
