<svg width="107" height="33" fill="none" xmlns="http://www.w3.org/2000/svg"><path d="M106.566 0H0v33h106.566V0z" fill="#C4C4C4"/><path fill-rule="evenodd" clip-rule="evenodd" d="M79.16 17.921c-.62 2.309-3.942 3.8-8.72 3.623-5.275.178-8.898-1.687-8.898-4.422 0-2.7 3.623-4.654 8.898-4.547 4.778-.089 8.1 1.492 8.72 3.8h-7.12a1.776 1.776 0 00-1.599-.94c-1.03 0-1.811.763-1.811 1.722 0 .942.763 1.723 1.811 1.723.71 0 1.297-.39 1.599-.941" fill="#231F20"/><path d="M79.16 17.921c-.62 2.309-3.942 3.8-8.72 3.623-5.275.178-8.898-1.687-8.898-4.422 0-2.7 3.623-4.654 8.898-4.547 4.778-.089 8.1 1.492 8.72 3.8h-7.12a1.776 1.776 0 00-1.599-.94c-1.03 0-1.811.763-1.811 1.722 0 .942.763 1.723 1.811 1.723.71 0 1.297-.39 1.599-.941h7.122v-.018z" stroke="#231F20" stroke-width=".104" stroke-miterlimit="3.864"/><path fill-rule="evenodd" clip-rule="evenodd" d="M57.67 17.263l3.979 3.89h-8.064l-2.522-2.646h1.19c.835 0 1.474-.675 1.474-1.421 0-.764-.621-1.492-1.456-1.492h-1.652v5.541h-6.838v-8.152h14.795a2.195 2.195 0 012.22 2.202c0 1.12-.941 2.078-2.22 2.078" fill="#231F20"/><path d="M57.67 17.263l3.979 3.89h-8.064l-2.522-2.646h1.19c.835 0 1.474-.675 1.474-1.421 0-.764-.621-1.492-1.456-1.492h-1.652v5.541h-6.838v-8.152h14.795a2.195 2.195 0 012.22 2.202c0 1.12-.941 2.078-2.22 2.078h-.906z" stroke="#231F20" stroke-width=".104" stroke-miterlimit="3.864"/><path fill-rule="evenodd" clip-rule="evenodd" d="M32.45 13v3.109c.035 1.367.834 1.722 1.74 1.722.941 0 1.811-.48 1.723-1.722V13h6.607v4.814c-.178 2.398-3.535 3.89-8.33 3.73-4.956.142-8.366-1.457-8.366-4.032V13" fill="#231F20"/><path d="M32.45 13v3.109c.035 1.367.834 1.722 1.74 1.722.941 0 1.811-.48 1.723-1.722V13h6.607v4.814c-.178 2.398-3.535 3.89-8.33 3.73-4.956.142-8.366-1.457-8.366-4.032V13h6.625v0z" stroke="#231F20" stroke-width=".104" stroke-miterlimit="3.864"/><path fill-rule="evenodd" clip-rule="evenodd" d="M8.294 13h16.322v3.997h-4.795v4.156h-6.732v-4.156H8.294" fill="#231F20"/><path d="M8.294 13h16.322v3.997h-4.795v4.156h-6.732v-4.156H8.294V13z" stroke="#231F20" stroke-width=".104" stroke-miterlimit="3.864"/><path fill-rule="evenodd" clip-rule="evenodd" d="M80.227 13v8.153h6.82v-3.5l3.445 3.5h7.762l-4.085-4.21L98.201 13h-7.442l-3.712 3.553V13" fill="#231F20"/><path d="M80.227 13v8.153h6.82v-3.5l3.445 3.5h7.762l-4.085-4.21L98.201 13h-7.442l-3.712 3.553V13h-6.82z" stroke="#231F20" stroke-width=".104" stroke-miterlimit="3.864"/></svg>