<svg width="109" height="27" fill="none" xmlns="http://www.w3.org/2000/svg"><path d="M.01.96h4.857v14.214c0 2.228.236 3.765.707 4.63a2.534 2.534 0 002.429 1.293 2.525 2.525 0 002.428-1.293c.472-.873.708-2.402.708-4.63V.961h4.857v15.637c.044 1.31-.043 2.62-.262 3.914-.171.816-.5 1.59-.97 2.28a7.304 7.304 0 01-2.821 2.542 8.902 8.902 0 01-3.94.804 8.928 8.928 0 01-3.94-.804 7.434 7.434 0 01-2.795-2.498 6.42 6.42 0 01-.97-2.246 19.35 19.35 0 01-.288-3.992V.961zm24.277 6.03v2.114a6.16 6.16 0 012.192-1.878 6.316 6.316 0 012.813-.612 7.653 7.653 0 013.494.769 6.473 6.473 0 012.516 2.28c.447.707.763 1.488.935 2.306.23 1.239.338 2.497.323 3.757v9.88h-4.367v-8.247c0-2.492-.291-4.202-.874-5.128a3.285 3.285 0 00-3.005-1.38 3.417 3.417 0 00-3.136 1.529c-.636 1.024-.953 2.772-.953 5.241v7.976h-4.202V6.989h4.264zM44.64 5.093h-4.263V.961h4.263v4.132zm-4.263 20.512V6.989h4.263v18.616h-4.263zm7.172-12.37A13.044 13.044 0 0148.1 9.4a12.23 12.23 0 011.617-3.372 12.684 12.684 0 014.62-4.106 12.894 12.894 0 016.116-1.45 12.23 12.23 0 014.761.952A12.685 12.685 0 0169.32 4.15a12.886 12.886 0 012.822 4.14 12.23 12.23 0 01.934 4.814 13.391 13.391 0 01-.873 4.962 12.107 12.107 0 01-2.682 4.106 12.23 12.23 0 01-4.167 2.882 12.614 12.614 0 01-4.971 1.014 13.035 13.035 0 01-5.11-.987 11.898 11.898 0 01-4.15-2.91 12.642 12.642 0 01-2.62-4.096 13.26 13.26 0 01-.953-4.84zm5.102-.175a8.183 8.183 0 00.524 2.961 8.167 8.167 0 004.193 4.412 7.06 7.06 0 002.997.664 7.243 7.243 0 005.46-2.298 7.957 7.957 0 002.183-5.695 7.32 7.32 0 00-2.227-5.416 7.287 7.287 0 00-5.338-2.22 7.609 7.609 0 00-5.53 2.21 7.26 7.26 0 00-2.262 5.426v-.044zm28.33 12.545h-4.857V.96h6.168a21.561 21.561 0 013.712.253 6.116 6.116 0 012.193.813 7.277 7.277 0 012.411 2.725 7.766 7.766 0 01.874 3.626 7.25 7.25 0 01-2.368 5.652 9.164 9.164 0 01-6.342 2.114h-1.79v9.46zm0-13.628h1.284a4.9 4.9 0 003.11-.874 3.049 3.049 0 001.118-2.49 2.98 2.98 0 00-1.083-2.498 5.163 5.163 0 00-3.18-.821h-1.249v6.683zM100.166.804v5.171h-.873V.804h-1.154V0h3.206v.804h-1.179zm7.294 5.171V.926l-2.009 5.05h-.533l-2.026-5.05v5.05h-.874V0h1.38l1.809 4.578L106.997 0h1.381v5.975h-.918z" fill="#4B4B4B"/></svg>