<svg width="134" height="27" fill="none" xmlns="http://www.w3.org/2000/svg"><path d="M15.977 16.607h-1.69l-.609-3.618h-.015l-.592 3.618h-1.698L9.84 10.674h1.705l.688 3.661h.015l.679-3.66h1.533l.663 3.702h.016l.703-3.703h1.714l-1.58 5.933zM6.102 6.032a10.835 10.835 0 017.582-3.114c2.974 0 5.646 1.22 7.594 3.17a10.79 10.79 0 01-7.584 3.128c-2.972 0-5.644-1.235-7.592-3.184zm4.724 17.988a10.798 10.798 0 01-6.497-5c-1.487-2.582-1.763-5.5-1.05-8.164a10.769 10.769 0 016.498 5.007c1.485 2.567 1.761 5.497 1.049 8.158zm13.295-13.051a10.772 10.772 0 01-1.086 8.12c-1.486 2.579-3.882 4.282-6.543 4.994a10.811 10.811 0 011.086-8.135c1.487-2.567 3.882-4.264 6.543-4.98z" fill="#9D9D9D"/><path d="M47.536 19.693h.053l2.629-9.65h3.94L49.52 22.857h-4.317l-2.762-9.546h-.053l-2.816 9.546h-4.37l-4.425-12.814h4.21l2.467 9.65h.053l2.843-9.65h4.37l2.816 9.65zm8.554-9.65h4.022v12.815H56.09V10.043zm4.156-5.624v3.296h-4.29V4.42h4.29zm6.859 13.044c0 1.67.241 3.223 2.307 3.223 1.395 0 2.092-.485 2.466-1.666h3.62c-.348 3.173-2.95 4.22-6.086 4.22-4.613 0-6.463-2.477-6.463-6.773 0-3.843 2.36-6.817 6.463-6.817 2.521 0 4.612.828 5.738 3.072.375.715.563 1.473.671 2.3.107.786.107 1.6.107 2.44h-8.823zm4.667-2.553c0-1.402-.403-2.707-2.36-2.707-1.851 0-2.252 1.305-2.307 2.707h4.667zm6.675 7.948h4.023V4.418h-4.023v18.44zm7.455-9.196c.028-1.613.744-2.609 1.824-3.184 1.094-.617 2.51-.828 3.97-.828 2.706 0 5.736.954 5.736 4.797v7.005c.028.638.126 1.021.182 1.405h-3.619a12.251 12.251 0 01-.126-1.71h-.056c-.912 1.48-2.314 2.093-4.138 2.093-2.51 0-4.39-1.378-4.39-3.883 0-.898.42-3.058 2.862-4.054 1.612-.673 3.646-.744 5.26-.687v-1.207c0-.533-.435-1.585-1.852-1.585-1.389 0-1.852 1.249-1.796 1.838h-3.857zm3.24 5.19c0 1.066.828 1.834 1.964 1.834 2.216 0 2.3-2.353 2.3-3.854-1.388-.028-4.264-.056-4.264 2.02zm15.709-7.336l.056.084c.828-1.178 2.09-1.95 4.124-1.95 1.346 0 3.941.954 4.432 2.82.21.785.266 1.599.266 2.033v8.354h-4.025V15.15c-.028-1.389-.421-2.946-2.412-2.946-1.263 0-2.357 1.08-2.413 2.946v7.708h-4.025V10.043h3.997v1.473zm21.642-7.097h4.012v15.885c0 .843.084 1.71.14 2.554h-4.025c-.057-.613-.099-1.2-.099-1.814h-.056c-.883 1.506-2.384 2.197-4.137 2.197-3.942 0-5.779-3.506-5.779-6.788 0-3.45 2.118-6.802 6.298-6.802 1.388 0 2.833.8 3.59 1.865h.056V4.42zm-2.903 16.267c2.174 0 2.903-2.48 2.903-4.233 0-1.767-.729-4.25-2.903-4.25-2.567 0-2.889 2.273-2.889 4.25 0 1.964.322 4.233 2.889 4.233z" fill="#231F20"/></svg>